<?xml version="1.0" encoding="UTF-8" standalone="no"?>
<!-- Created with Inkscape (http://www.inkscape.org/) -->

<svg
   xmlns:dc="http://purl.org/dc/elements/1.1/"
   xmlns:cc="http://creativecommons.org/ns#"
   xmlns:rdf="http://www.w3.org/1999/02/22-rdf-syntax-ns#"
   xmlns:svg="http://www.w3.org/2000/svg"
   xmlns="http://www.w3.org/2000/svg"
   xmlns:sodipodi="http://sodipodi.sourceforge.net/DTD/sodipodi-0.dtd"
   xmlns:inkscape="http://www.inkscape.org/namespaces/inkscape"
   width="1262.6654"
   height="498.71262"
   id="svg3155"
   version="1.1"
   inkscape:version="0.48.4 r9939"
   sodipodi:docname="logo.svg"
   inkscape:export-filename="/home/www/mpcat.org/static/mpcat.org.png"
   inkscape:export-xdpi="34.049999"
   inkscape:export-ydpi="34.049999">
  <defs
     id="defs3157">
    <filter
       id="filter3669"
       inkscape:label="Drop Shadow"
       color-interpolation-filters="sRGB">
      <feFlood
         id="feFlood3671"
         flood-opacity="0.2"
         flood-color="rgb(0,0,0)"
         result="flood" />
      <feComposite
         id="feComposite3673"
         in2="SourceGraphic"
         in="flood"
         operator="in"
         result="composite1" />
      <feGaussianBlur
         id="feGaussianBlur3675"
         stdDeviation="2"
         result="blur" />
      <feOffset
         id="feOffset3677"
         dx="5"
         dy="5"
         result="offset" />
      <feComposite
         id="feComposite3679"
         in2="offset"
         in="SourceGraphic"
         operator="over"
         result="composite2" />
    </filter>
    <filter
       id="filter3681"
       inkscape:label="Drop Shadow"
       color-interpolation-filters="sRGB">
      <feFlood
         id="feFlood3683"
         flood-opacity="0.2"
         flood-color="rgb(0,0,0)"
         result="flood" />
      <feComposite
         id="feComposite3685"
         in2="SourceGraphic"
         in="flood"
         operator="in"
         result="composite1" />
      <feGaussianBlur
         id="feGaussianBlur3687"
         stdDeviation="2"
         result="blur" />
      <feOffset
         id="feOffset3689"
         dx="5"
         dy="5"
         result="offset" />
      <feComposite
         id="feComposite3691"
         in2="offset"
         in="SourceGraphic"
         operator="over"
         result="composite2" />
    </filter>
    <filter
       id="filter3693"
       inkscape:label="Drop Shadow"
       color-interpolation-filters="sRGB">
      <feFlood
         id="feFlood3695"
         flood-opacity="0.2"
         flood-color="rgb(0,0,0)"
         result="flood" />
      <feComposite
         id="feComposite3697"
         in2="SourceGraphic"
         in="flood"
         operator="in"
         result="composite1" />
      <feGaussianBlur
         id="feGaussianBlur3699"
         stdDeviation="2"
         result="blur" />
      <feOffset
         id="feOffset3701"
         dx="5"
         dy="5"
         result="offset" />
      <feComposite
         id="feComposite3703"
         in2="offset"
         in="SourceGraphic"
         operator="over"
         result="composite2" />
    </filter>
    <filter
       id="filter3705"
       inkscape:label="Drop Shadow"
       color-interpolation-filters="sRGB">
      <feFlood
         id="feFlood3707"
         flood-opacity="0.2"
         flood-color="rgb(0,0,0)"
         result="flood" />
      <feComposite
         id="feComposite3709"
         in2="SourceGraphic"
         in="flood"
         operator="in"
         result="composite1" />
      <feGaussianBlur
         id="feGaussianBlur3711"
         stdDeviation="2"
         result="blur" />
      <feOffset
         id="feOffset3713"
         dx="5"
         dy="5"
         result="offset" />
      <feComposite
         id="feComposite3715"
         in2="offset"
         in="SourceGraphic"
         operator="over"
         result="composite2" />
    </filter>
    <filter
       id="filter4580"
       inkscape:label="Drop Shadow"
       color-interpolation-filters="sRGB">
      <feFlood
         id="feFlood4582"
         flood-opacity="0.2"
         flood-color="rgb(255,255,255)"
         result="flood" />
      <feComposite
         id="feComposite4584"
         in2="SourceGraphic"
         in="flood"
         operator="in"
         result="composite1" />
      <feGaussianBlur
         id="feGaussianBlur4586"
         stdDeviation="2"
         result="blur" />
      <feOffset
         id="feOffset4588"
         dx="-5"
         dy="-5"
         result="offset" />
      <feComposite
         id="feComposite4590"
         in2="offset"
         in="SourceGraphic"
         operator="over"
         result="composite2" />
    </filter>
    <filter
       id="filter4592"
       inkscape:label="Drop Shadow"
       color-interpolation-filters="sRGB">
      <feFlood
         id="feFlood4594"
         flood-opacity="0.2"
         flood-color="rgb(255,255,255)"
         result="flood" />
      <feComposite
         id="feComposite4596"
         in2="SourceGraphic"
         in="flood"
         operator="in"
         result="composite1" />
      <feGaussianBlur
         id="feGaussianBlur4598"
         stdDeviation="2"
         result="blur" />
      <feOffset
         id="feOffset4600"
         dx="-5"
         dy="-5"
         result="offset" />
      <feComposite
         id="feComposite4602"
         in2="offset"
         in="SourceGraphic"
         operator="over"
         result="composite2" />
    </filter>
    <filter
       id="filter4604"
       inkscape:label="Drop Shadow"
       color-interpolation-filters="sRGB">
      <feFlood
         id="feFlood4606"
         flood-opacity="0.2"
         flood-color="rgb(255,255,255)"
         result="flood" />
      <feComposite
         id="feComposite4608"
         in2="SourceGraphic"
         in="flood"
         operator="in"
         result="composite1" />
      <feGaussianBlur
         id="feGaussianBlur4610"
         stdDeviation="2"
         result="blur" />
      <feOffset
         id="feOffset4612"
         dx="-5"
         dy="-5"
         result="offset" />
      <feComposite
         id="feComposite4614"
         in2="offset"
         in="SourceGraphic"
         operator="over"
         result="composite2" />
    </filter>
    <filter
       id="filter4616"
       inkscape:label="Drop Shadow"
       color-interpolation-filters="sRGB">
      <feFlood
         id="feFlood4618"
         flood-opacity="0.2"
         flood-color="rgb(255,255,255)"
         result="flood" />
      <feComposite
         id="feComposite4620"
         in2="SourceGraphic"
         in="flood"
         operator="in"
         result="composite1" />
      <feGaussianBlur
         id="feGaussianBlur4622"
         stdDeviation="2"
         result="blur" />
      <feOffset
         id="feOffset4624"
         dx="-5"
         dy="-5"
         result="offset" />
      <feComposite
         id="feComposite4626"
         in2="offset"
         in="SourceGraphic"
         operator="over"
         result="composite2" />
    </filter>
  </defs>
  <sodipodi:namedview
     id="base"
     pagecolor="#ffffff"
     bordercolor="#666666"
     borderopacity="1.0"
     inkscape:pageopacity="0.0"
     inkscape:pageshadow="2"
     inkscape:zoom="0.49497475"
     inkscape:cx="939.69104"
     inkscape:cy="234.74374"
     inkscape:document-units="px"
     inkscape:current-layer="layer1"
     showgrid="false"
     fit-margin-top="0"
     fit-margin-left="0"
     fit-margin-right="0"
     fit-margin-bottom="0"
     inkscape:window-width="1551"
     inkscape:window-height="876"
     inkscape:window-x="49"
     inkscape:window-y="0"
     inkscape:window-maximized="1"
     showguides="false"
     inkscape:guide-bbox="true"
     inkscape:snap-global="false"
     inkscape:snap-bbox="false">
    <sodipodi:guide
       orientation="0,1"
       position="183.34395,452.85713"
       id="guide4727" />
    <sodipodi:guide
       orientation="0,1"
       position="414.95109,309.99999"
       id="guide4729" />
    <sodipodi:guide
       orientation="0,1"
       position="231.68574,192.87599"
       id="guide4731" />
    <sodipodi:guide
       orientation="0,1"
       position="214.33952,49.939402"
       id="guide4733" />
    <sodipodi:guide
       orientation="1,0"
       position="730.66538,250.51782"
       id="guide3117" />
    <sodipodi:guide
       orientation="1,0"
       position="962.66535,155.43699"
       id="guide3119" />
    <sodipodi:guide
       orientation="1,0"
       position="846.66535,96.874982"
       id="guide3121" />
    <sodipodi:guide
       orientation="1,0"
       position="1030.6653,452.85699"
       id="guide3125" />
    <sodipodi:guide
       orientation="1,0"
       position="1262.6653,452.85699"
       id="guide3127" />
    <sodipodi:guide
       orientation="1,0"
       position="1146.6653,468.71099"
       id="guide3129" />
  </sodipodi:namedview>
  <metadata
     id="metadata3160">
    <rdf:RDF>
      <cc:Work
         rdf:about="">
        <dc:format>image/svg+xml</dc:format>
        <dc:type
           rdf:resource="http://purl.org/dc/dcmitype/StillImage" />
        <dc:title></dc:title>
      </cc:Work>
    </rdf:RDF>
  </metadata>
  <g
     inkscape:label="Layer 1"
     inkscape:groupmode="layer"
     id="layer1"
     transform="translate(12.466047,-93.005871)">
    <rect
       style="color:#000000;fill:#000000;fill-opacity:1;stroke:none;stroke-width:2;marker:none;visibility:visible;display:inline;overflow:visible;enable-background:accumulate"
       id="rect3750"
       width="600"
       height="250"
       x="18.199337"
       y="341.71848"
       inkscape:export-filename="/home/www/mpcat.org/static/mpcat.org-white.png"
       inkscape:export-xdpi="28.799997"
       inkscape:export-ydpi="28.799997" />
    <path
       sodipodi:type="star"
       style="color:#000000;fill:#fff3a9;fill-opacity:1;stroke:none;stroke-width:2;marker:none;visibility:visible;display:inline;overflow:visible;enable-background:accumulate"
       id="path3412"
       sodipodi:sides="32"
       sodipodi:cx="-1983.9396"
       sodipodi:cy="-541.65851"
       sodipodi:r1="497.93451"
       sodipodi:r2="461.5853"
       sodipodi:arg1="0.52359878"
       sodipodi:arg2="0.62177355"
       inkscape:flatsided="false"
       inkscape:rounded="1.35"
       inkscape:randomized="0.07"
       d="m -1521.2135,-284.90359 c -40.7131,71.89381 -21.9737,-29.56851 -67.2914,34.84149 -45.3176,64.41 22.1664,-56.7165 -31.2106,3.24854 -53.377,59.96504 -18.0035,10.03259 -71.9073,67.79229 -53.9039,57.75969 103.6242,-23.67104 40.3293,28.61273 -63.2949,52.283765 -4.4989,-63.21067 -76.7371,-22.37627 -72.2381,40.8344 67.1662,56.98516 -3.0637,91.982579 -70.2298,34.997416 -45.8106,-45.980849 -124.6818,-24.673919 -78.8711,21.306926 99.9713,34.494942 21.81,61.847193 -78.1613,27.352251 11.9576,-62.113893 -67.5134,-40.762944 -79.4709,21.350945 34.0536,36.207271 -46.888,33.28408 -80.9416,-2.923191 47.0081,-6.015554 -35.8367,-2.428271 -82.8449,3.587283 16.7104,-22.971323 -63.7766,-27.479269 -80.4869,-4.507947 36.2332,30.8736 -42.5356,20.04765 -78.7688,-10.82595 40.9928,48.032309 -35.4445,19.576299 -76.4373,-28.456009 -12.1588,-50.947692 -82.2119,-88.825288 -70.053,-37.8776 40.2845,30.809786 -30.107,-12.19922 -70.3914,-43.009 76.6341,-7.18325 11.7042,-52.18063 -64.93,-44.99739 -27.924,101.89331 -91.261,55.32259 -63.3371,-46.57071 72.548,-19.93964 21.1085,-84.32884 -51.4396,-64.3892 -8.5563,77.93038 -59.8024,16.70773 -51.2461,-61.22264 3.7121,10.03054 -38.1214,-61.67886 -41.8335,-71.70939 7.7893,-17.60556 -34.8769,-84.8216 -42.6661,-67.21604 65.1199,50.7364 33.486,-24.04375 -31.6338,-74.78016 -18.6065,42.61008 -35.9122,-34.25307 -17.3057,-76.86314 39.1714,19.81704 21.1906,-55.61808 -17.9807,-75.43511 -34.5013,8.63108 -38.8003,-70.70586 -4.2991,-79.33694 2.6869,58.77028 11.2854,-19.08162 8.5985,-77.85189 -70.4757,0.6096 -65.9392,-77.85903 4.5364,-78.46864 36.3203,49.97821 53.6075,-28.45565 17.2873,-78.43386 -24.0553,72.39138 3.7912,-4.91222 27.8464,-77.3036 6.4483,-19.42873 39.7234,-95.16371 33.2751,-75.73498 -41.4698,25.15276 -8.7053,-48.68209 32.7645,-73.83485 23.5286,96.83441 67.2196,28.84714 43.6911,-67.98726 -86.6948,-9.99709 -38.5002,-72.95936 48.1946,-62.96228 3.0669,-5.38849 67.0014,-56.90172 63.9344,-51.51323 -4.8094,13.76495 61.9129,-34.03268 66.7222,-47.79763 -59.9293,68.30082 7.0263,22.37627 66.9555,-45.92455 -27.1668,-14.37169 44.0011,-54.38668 71.168,-40.01496 -20.3314,26.95958 51.2129,-7.50203 71.5443,-34.46163 0.876,-33.14023 75.597,-58.07313 74.7209,-24.9329 -72.0225,60.4854 6.3948,56.02616 78.4173,-4.45925 1.2154,-39.57436 80.3105,-52.32136 79.0951,-12.747 -40.1485,20.1697 36.9846,29.0726 77.1332,8.9029 -12.2484,-48.394 66.3867,-36.6999 78.6351,11.694 -71.8579,67.55328 4.2083,87.30971 76.0662,19.75642 0.3718,-52.83741 74.9209,-22.85984 74.5491,29.97757 -33.9489,-10.35172 40.1254,16.86636 74.0742,27.21807 -1.4833,-20.48227 67.2863,17.61916 68.7697,38.10144 -74.2698,-2.75001 -6.7981,41.29007 67.4717,44.04008 -6.3553,-37.64322 49.1756,19.85886 55.5309,57.50207 -40.1942,-6.34426 17.2188,46.68227 57.4131,53.02652 4.9501,-39.20118 58.6533,18.64007 53.7032,57.84124 -76.0023,-7.21452 -26.6823,58.507 49.32,65.72152 69.0878,-80.24211 100.8308,-9.34646 31.743,70.89565 -50.8561,13.28527 -16.1919,85.04614 34.6642,71.76086 1.3649,-41.61647 13.7098,38.41465 12.345,80.03111 -23.5024,-30.25859 -16.2834,52.44623 7.2189,82.70481 30.5558,-73.3992 41.4104,6.52666 10.8547,79.92587 -1.7265,7.56534 -11.2854,88.79245 -9.5588,81.22711 1.6532,-62.18203 -3.7705,15.86693 -5.4236,78.04895 -42.1672,-58.46578 -56.2176,22.924 -14.0505,81.38978 87.8529,-3.07745 68.5287,72.43597 -19.3242,75.51343 -9.8037,-7.79639 -43.4816,62.98777 -33.6779,70.78415 54.3962,-28.0801 13.6831,43.81371 z"
       transform="matrix(0.23477599,0,0,0.23477599,880.9533,339.59265)"
       inkscape:export-filename="/home/www/mpcat.org/static/mpcat.org.png"
       inkscape:export-xdpi="45.242687"
       inkscape:export-ydpi="45.242687" />
    <text
       xml:space="preserve"
       style="font-size:186.03936768px;font-style:normal;font-variant:normal;font-weight:bold;font-stretch:normal;text-align:center;line-height:125%;letter-spacing:0px;word-spacing:0px;writing-mode:lr-tb;text-anchor:middle;fill:#333333;fill-opacity:1;stroke:none;filter:url(#filter3705);font-family:Bitstream Vera Sans;-inkscape-font-specification:Sans Bold"
       x="130.75237"
       y="608.33679"
       id="text3389"
       sodipodi:linespacing="125%"
       transform="matrix(1.14624,0,0,0.87241764,0,-252)"
       inkscape:export-filename="/home/www/mpcat.org/static/mpcat.org.png"
       inkscape:export-xdpi="45.242687"
       inkscape:export-ydpi="45.242687"><tspan
         sodipodi:role="line"
         id="tspan3391"
         x="130.75237"
         y="608.33679"
         style="font-style:normal;font-variant:normal;font-weight:normal;font-stretch:normal;fill:#333333;font-family:Purisa;-inkscape-font-specification:Purisa">MP</tspan></text>
    <path
       inkscape:connector-curvature="0"
       id="path3397"
       d="m 514.57407,-118.97208 c -5.62876,1.23882 -9.38231,6.97505 -9.07117,12.65681 -0.5507,14.154213 0.54067,28.747943 4.25769,42.489873 2.15683,3.40653 -2.03188,6.21971 -3.26577,9.06796 -4.0335,6.2454 -6.67532,13.4846 -6.71094,21.01938 0.25672,3.15679 -3.60994,2.09548 -5.64831,2.35368 -13.17825,0.1711 -26.19709,-3.05417 -39.31426,-4.00086 -3.64244,-0.19118 -4.22682,5.67827 -0.62868,6.50294 6.80167,2.26228 14.14569,0.19479 21.1146,1.45935 8.31528,0.95101 16.886,0.34503 25.01079,1.96097 0.46355,3.6446 1.54665,7.35779 2.40164,10.77126 -14.30037,4.7027005 -30.00577,5.4780605 -44.22397,10.4684645 -2.53343,0.43265 -4.50766,4.49429995 -1.53718,5.75825 4.80612,0.81313 9.26789,-2.31179005 13.96252,-2.85016 11.57166,-2.59876 23.12347,-5.71435 34.89827,-7.039364 1.40153,1.22698 2.92009,3.682184 2.80724,5.293024 -8.26304,6.62684 -17.92501,11.59981 -25.14883,19.2989395 -1.65187,2.25957 1.11773,5.38823 3.51176,3.68452 8.6421,-5.93179 16.49698,-13.4569195 26.1174,-17.8610595 7.41803,3.77543 14.0682,9.0915695 22.01135,11.8591495 11.08495,4.39046 22.8988,7.00131 34.54063,9.1919 14.55128,1.47342 29.68872,0.61926 43.41934,-4.30202 7.933,-2.7851 14.83901,-7.96988 20.72717,-13.8002095 2.10878,-2.0042 2.94199,-6.48557 6.73608,-5.25487005 15.88417,2.29855005 32.14338,7.39647005 44.83529,17.52951955 1.58077,1.98709 1.65212,5.08225 4.47142,6.07729 1.89807,1.4576 5.06707,1.98989 5.92715,-0.83149 1.70155,-4.51523 -3.4227,-7.92088 -6.55582,-10.22741 -9.15736,-6.4695095 -18.66759,-12.63271955 -29.71691,-14.9770195 -5.93609,-1.78989 -12.07922,-2.8711 -18.09137,-4.25566 0.91847,-1.858634 1.08046,-5.7131445 4.05679,-5.0514545 13.37646,1.40624 26.68735,4.1639405 39.63769,7.9423445 3.54923,1.64437 7.64711,3.95608995 11.65413,3.012 3.28159,-1.42924 1.54196,-6.062714 -1.3218,-6.992154 -7.09281,-2.4322505 -14.55213,-3.9707605 -21.85502,-5.6065105 -9.44194,-1.8607 -18.91446,-3.54932 -28.40685,-5.10703 -0.55973,-3.74916 0.84875,-8.94078 5.42228,-8.98112 12.77277,-1.4375 25.69957,-1.71618 38.54883,-1.65337 3.97865,-0.63291 2.05163,-6.74226 -1.39081,-6.73047 -11.3485,-1.11138 -22.75668,0.77055 -34.08298,1.31894 -2.08843,-0.25894 -5.44552,1.26655 -6.82443,-0.84223 -1.07967,-7.44691 -2.68511,-14.89562 -6.6833,-21.43104 -2.19547,-2.64158 1.40465,-5.16269 2.16475,-7.61833 4.44496,-7.63859 8.07102,-15.89194 9.97707,-24.50859 -1.22862,-7.95085 -0.30944,-17.304143 -5.73841,-23.937033 -4.18439,-4.367 -10.97049,-2.29382 -15.98538,-1.06587 -11.03945,3.68258 -22.38705,9.29142 -28.91193,19.214833 -1.28734,1.79988 -1.49688,4.16328 -2.16834,6.09549 -9.32032,1.02329 -19.08373,-1.27546 -28.38411,0.94968 -5.63821,0.9529 -12.09008,2.86497 -17.19201,3.44622 1.08068,-5.56853 -3.844,-10.20474 -6.82768,-14.44767 -6.22336,-6.960833 -12.71634,-14.560503 -21.56819,-18.090703 -3.52301,-1.13905 -7.23806,-2.2051 -10.95743,-1.95907 z m 0.97388,6.15366 c 6.58523,-0.52504 12.8616,2.29199 17.62699,6.72843 7.29634,5.85567 13.25644,13.372703 17.01388,21.873583 1.42212,1.41079 -2.74303,0.82914 -3.54933,1.38292 -2.06151,0.47272 -4.85432,0.6934 -5.32386,-1.94449 -2.99706,-6.41974 -9.6539,-9.97994 -14.98901,-14.17761 -2.38636,-1.635093 -6.95583,-4.559493 -9.00388,-1.01126 -1.29693,4.9947 0.21994,10.47612 0.20021,15.63948 0.0454,4.93481 1.35864,9.9988 1.15822,14.83933 -0.69239,1.39633 -1.80336,2.53467 -3.00112,3.47376 -4.5496,-11.4391 -3.90447,-24.04449 -4.32186,-36.091393 0.12168,-3.68576 0.17443,-8.81282 3.93596,-10.67683 l 0.19906,-0.032 0.0549,-0.004 z m 123.7091,3.18132 c 4.61394,-0.1663 5.78356,5.77888 6.23276,9.36832 0.8025,5.697933 1.45647,11.537623 -1.16125,16.834863 -2.32669,6.53544 -5.29109,12.90269 -9.45526,18.45379 -2.46448,-1.93193 -2.3358,-4.0542 0.20039,-5.94117 5.34985,-6.02073 4.84451,-14.90108 6.55056,-22.40451 1.38922,-3.29254 -0.58222,-7.639053 -4.67198,-6.4995 -10.03252,1.17086 -19.60274,5.97862 -26.54691,13.11947 -0.54088,1.1339 -1.22644,2.3843 -2.5653,1.0948 -1.83516,-0.64275 -3.09862,-2.22386 -1.92419,-3.99608 4.03135,-7.97035 12.65332,-12.398513 20.43975,-16.055873 4.11362,-1.76631 8.4575,-3.19802 12.90143,-3.97411 z m -116.45594,15.512823 c 5.01406,2.48747 9.40374,6.80645 12.8599,11.20497 2.02424,2.51394 -1.88183,3.96823 -3.73639,4.51551 -2.55578,0.7308 -4.49131,2.84665 -6.45201,4.29934 -2.0497,-4.84225 -1.96169,-10.56812 -2.66843,-15.836 -0.0387,-1.35741 -0.2991,-2.90822 -0.003,-4.18382 z m 110.92395,1.51363 c 1.52469,0.0114 0.30297,2.65607 0.54396,3.52243 -0.51598,6.12968 -1.88739,12.65879 -7.12237,16.45734 -3.92349,-2.96692 -7.79563,-6.1024 -11.69408,-8.97334 2.38703,-4.76704 7.82281,-7.38051 12.51494,-9.48936 1.87524,-0.648 3.76547,-1.26273 5.75755,-1.51707 z m -58.98687,10.11181 c 13.46257,-0.53312 28.23264,-0.71011 39.57508,7.93652 5.47721,4.16154 11.16936,8.42111 15.50914,13.74807 0.64602,2.14974 -0.36857,6.20358 3.06713,6.17426 3.87369,0.69983 5.17402,5.5316 6.3333,8.71967 0.93218,3.88186 2.27439,8.23525 1.32698,12.13009 -3.66861,2.58754 -9.88157,0.82075 -12.5559,4.99621 -1.07999,2.45375 1.4565,5.08849 4.0119,4.16381 2.53331,-0.0983 5.5372,-1.31363 7.81502,-0.85176 -0.63496,2.16227 -0.26786,6.18343 -3.57083,5.04456 -3.10498,0.48291 -7.50672,-1.31343 -9.89721,1.28088 -1.60418,3.17838 2.09516,5.75727 5.02018,5.63565 1.23515,0.44483 4.14506,-0.28247 4.3868,1.29352 -0.31233,2.9608905 -3.05436,4.9267405 -6.023,3.9577505 -2.31365,-0.60706 -6.54183,-1.17221 -6.81779,2.195924 0.0575,3.4641 4.74343,3.53368 6.64029,4.6429 -9.04136,10.3471 -22.6329,16.0809995 -36.45517,17.1085395 -14.0602,1.56236 -28.38094,0.78755 -42.0784,-3.27928 -11.1535,-2.31504 -22.04007,-6.6194295 -31.39187,-13.13633955 -1.76418,-1.20312995 1.14587,-1.81229995 1.9059,-2.35210995 2.96713,-2.06455 6.79325,-3.63656 8.72819,-6.823844 -0.20033,-3.0921005 -4.30384,-2.1527505 -5.94814,-0.8920605 -3.31682,1.7413005 -6.70086,4.6102745 -10.55448,4.3808645 -1.04984,-0.758564 -2.98181,-3.497364 -0.80551,-3.9999245 4.03159,-1.8009 9.94098,-1.81681 12.28021,-6.05989 0.56563,-2.87114 -3.29551,-3.28314 -5.05508,-2.01811 -3.51973,1.1798 -7.4668,2.95695 -11.16457,2.42277 -1.88952,-2.90883 -3.00531,-6.98006 -2.29952,-10.2278 2.8644,-1.52039 5.81433,0.99752 8.63471,0.13761 2.31966,-1.21065 1.07125,-4.59474 -1.4143,-4.67354 -2.49351,-0.82679 -5.54687,0.58936 -7.79882,-0.65413 -1.31913,-6.0651 1.08814,-12.17363 3.36192,-17.72065 3.22192,-5.82219 7.8948,-11.06265 12.93643,-15.20728 5.95522,-3.54662 10.0808,-10.4128 17.56923,-11.2882 3.92069,-0.48884 7.36202,-3.84509 11.34209,-2.06805 5.0758,0.46824 9.8278,-2.07885 14.96672,-1.73442 2.7056,0.11772 5.50396,-0.49786 7.1404,-2.71035 0.37984,-0.10159 0.84591,-0.24524 1.27897,-0.27186 z m -32.08128,23.55812 c -3.97807,1.58601 -3.70505,6.87505 -3.89709,10.49063 -0.0709,4.2945 1.47228,10.88809 6.80777,11.01744 4.36684,-0.63869 6.36214,-6.02032 6.02988,-10.01406 -0.86566,-4.15999 -2.95103,-8.6802 -6.52863,-11.18355 -0.7643,-0.33906 -1.58702,-0.47228 -2.41193,-0.31046 z m 54.45799,-3.52305 c -4.30882,1.64121 -5.84939,6.83949 -6.64228,10.99226 -0.55285,4.27448 1.70021,9.77876 6.19173,10.89482 6.01791,-0.74208 8.05694,-7.82375 7.6885,-13.10144 -0.044,-3.85837 -2.71443,-9.22945 -7.23795,-8.78564 z m -28.85044,31.40933 c -2.37847,-0.51778 -4.85653,1.29281 -3.74492,3.78204 1.05809,4.55483 6.00413,7.67906 6.06922,12.4448 -0.60178,3.99586 -4.71248,6.1655605 -8.50582,5.1569005 -3.46149,0.4073 -1.81802,5.522754 0.68445,6.412244 3.67597,1.73095 7.48325,-0.50393 10.43827,-2.33588 0.88175,2.85891 3.54807,5.35635995 6.77195,4.46865 3.66628,-0.80645 8.82402,-0.44951 11.02854,-3.99155 1.20401,-2.971314 -2.46179,-4.8878545 -4.97925,-4.317194 -2.46337,-0.11822 -5.35078,1.17246 -7.56593,0.33905 -1.42673,-4.4208405 -2.06764,-9.7039105 1.33666,-13.3600505 1.84194,-2.03886 6.30898,-3.32195 5.03408,-6.89899 -1.50079,-3.07104 -5.82079,-1.59135 -8.50732,-2.05492 -2.69124,0.0242 -5.38325,0.10292 -8.05993,0.35492 z"
       style="fill:#333333"
       inkscape:export-filename="/tmp/mpcat.org.png"
       inkscape:export-xdpi="30.161787"
       inkscape:export-ydpi="30.161787" />
    <g
       id="g4755"
       transform="translate(0,8)"
       inkscape:export-filename="/home/www/mpcat.org/static/mpcat.org.png"
       inkscape:export-xdpi="45.242687"
       inkscape:export-ydpi="45.242687">
      <path
         inkscape:export-ydpi="30.161787"
         inkscape:export-xdpi="30.161787"
         inkscape:export-filename="/tmp/mpcat.org.png"
         inkscape:connector-curvature="0"
         id="path4339"
         d="m 580.36254,139.04903 c -9.37321,1.01766 -19.89163,5.51305 -23.62955,14.71929 -0.93594,4.77411 -0.64995,10.27059 1.64319,14.58043 1.3729,1.87382 2.32275,4.57841 4.72442,5.89706 11.07863,7.75548 25.67095,11.23907 39.06316,8.56765 7.22538,-1.33852 14.66217,-8.01609 12.52065,-15.92275 -0.90374,-1.57257 -1.77542,-2.91316 -2.03663,-4.74443 -1.33243,-2.50831 -3.7391,-4.16821 -4.07326,-7.10507 -4.4294,-10.9685 -16.93519,-16.41224 -28.21198,-15.99218 z m 0.3703,10.11372 c 9.05664,0.27572 19.62067,4.10767 21.63921,14.00184 0.227,2.55475 2.35693,6.34536 0.27772,8.42425 -3.52093,2.11471 -7.68984,4.84187 -11.91892,2.75409 -6.63121,-2.15125 -14.2634,-1.81229 -19.61798,-6.92253 -3.93612,-2.1439 -7.20064,-7.45465 -4.17358,-11.6386 3.27505,-3.95067 8.8775,-5.82231 13.79355,-6.61905 z"
         style="font-size:94.36105347px;font-style:normal;font-variant:normal;font-weight:bold;font-stretch:normal;text-align:center;line-height:125%;letter-spacing:0px;word-spacing:0px;writing-mode:lr-tb;text-anchor:middle;fill:#333333;fill-opacity:1;stroke:none;filter:url(#filter3693);font-family:Purisa;-inkscape-font-specification:Purisa Bold" />
      <path
         inkscape:export-ydpi="30.161787"
         inkscape:export-xdpi="30.161787"
         inkscape:export-filename="/tmp/mpcat.org.png"
         inkscape:connector-curvature="0"
         id="path4341"
         d="m 603.36722,188.15962 c -2.94954,0.0832 -4.26087,3.60406 -3.88811,5.78588 -4.78823,0.58976 -9.60638,0.86385 -14.41843,1.18032 -0.83994,-3.92456 -6.49378,-5.92219 -8.88712,-2.10605 -1.40961,3.89495 -6.84096,2.43496 -10.06744,2.86979 -4.67698,-1.04709 -13.02495,2.79873 -8.42425,8.21596 3.98818,2.9281 9.62943,0.37816 14.16385,1.04146 -2.27188,7.91037 -7.59371,14.65004 -9.78972,22.51867 -0.62887,4.29664 5.42112,5.33242 7.68366,2.40692 3.90709,-2.97126 5.47936,-7.80866 7.84566,-11.89578 1.22452,-2.80813 2.16684,-5.73031 3.14752,-8.63254 2.60322,5.04274 5.1171,10.40631 9.99801,13.56212 4.6536,4.33362 12.8054,8.32122 18.4454,3.61039 4.53885,-4.89735 3.10689,-12.46899 4.53613,-18.51483 -0.10898,-4.68959 2.95354,-10.96351 -1.42116,-14.48289 -2.50499,-2.15363 -5.25491,-5.59099 -8.924,-5.55942 z m 0.32402,18.12139 c -0.0731,4.53313 -0.92029,9.109 -2.22179,13.28439 -5.62828,-2.27776 -10.27206,-6.57743 -12.38179,-12.42808 -2.49535,-3.4951 3.97663,-1.68332 6.15061,-2.48895 2.84123,-0.25314 5.66231,-0.48399 8.45297,-0.95943 0,0.86403 0,1.72804 0,2.59207 z"
         style="font-size:94.36105347px;font-style:normal;font-variant:normal;font-weight:bold;font-stretch:normal;text-align:center;line-height:125%;letter-spacing:0px;word-spacing:0px;writing-mode:lr-tb;text-anchor:middle;fill:#333333;fill-opacity:1;stroke:none;filter:url(#filter3681);font-family:Purisa;-inkscape-font-specification:Purisa Bold" />
      <path
         inkscape:export-ydpi="30.161787"
         inkscape:export-xdpi="30.161787"
         inkscape:export-filename="/tmp/mpcat.org.png"
         inkscape:connector-curvature="0"
         id="path4343"
         d="m 574.25265,238.14967 c -6.28218,0.49015 -14.41198,2.14597 -15.99219,9.34998 -2.63866,9.45212 4.08653,18.565 11.17833,24.04615 -3.99562,0.16984 -11.02547,-0.80665 -11.91892,4.55927 -0.64932,4.1194 3.76232,6.13553 7.26707,5.5776 8.31562,-0.37008 17.50162,0.25818 24.92559,-3.98069 3.91855,-3.6148 3.7541,-9.63567 4.28156,-14.58043 0.11587,-3.05102 -2.07284,-5.27445 -2.89294,-8.0771 -2.25592,-4.30672 -8.76232,-2.0771 -9.23427,2.3375 -1.12258,3.19114 -0.77281,7.21912 0.43973,9.92858 -7.43405,-1.7501 -15.95946,-8.3391 -14.48787,-17.03365 1.57954,-3.18832 6.40434,-1.60681 9.28057,-2.19863 8.53792,-0.83049 15.75933,5.0925 21.68549,10.43773 3.5604,3.53534 7.00681,8.68176 7.38279,13.46954 -3.8836,0.65359 -3.73342,6.05089 -0.324,7.22079 3.07517,2.38713 7.63537,1.04654 8.79454,-2.63836 2.03667,-3.87553 2.18601,-9.20495 -1.24975,-12.26608 -4.18703,-11.3487 -13.85212,-20.12892 -24.99503,-24.30072 -4.5994,-1.24468 -9.36722,-1.88976 -14.1407,-1.85148 z"
         style="font-size:94.36105347px;font-style:normal;font-variant:normal;font-weight:bold;font-stretch:normal;text-align:center;line-height:125%;letter-spacing:0px;word-spacing:0px;writing-mode:lr-tb;text-anchor:middle;fill:#333333;fill-opacity:1;stroke:none;filter:url(#filter3669);font-family:Purisa;-inkscape-font-specification:Purisa Bold" />
    </g>
    <path
       inkscape:export-ydpi="45.242687"
       inkscape:export-xdpi="45.242687"
       inkscape:export-filename="/home/www/mpcat.org/static/mpcat.org-white.png"
       transform="matrix(0.23477599,0,0,0.23477599,880.9533,599.59265)"
       d="m -1521.2135,-284.90359 c -40.7131,71.89381 -21.9737,-29.56851 -67.2914,34.84149 -45.3176,64.41 22.1664,-56.7165 -31.2106,3.24854 -53.377,59.96504 -18.0035,10.03259 -71.9073,67.79229 -53.9039,57.75969 103.6242,-23.67104 40.3293,28.61273 -63.2949,52.283765 -4.4989,-63.21067 -76.7371,-22.37627 -72.2381,40.8344 67.1662,56.98516 -3.0637,91.982579 -70.2298,34.997416 -45.8106,-45.980849 -124.6818,-24.673919 -78.8711,21.306926 99.9713,34.494942 21.81,61.847193 -78.1613,27.352251 11.9576,-62.113893 -67.5134,-40.762944 -79.4709,21.350945 34.0536,36.207271 -46.888,33.28408 -80.9416,-2.923191 47.0081,-6.015554 -35.8367,-2.428271 -82.8449,3.587283 16.7104,-22.971323 -63.7766,-27.479269 -80.4869,-4.507947 36.2332,30.8736 -42.5356,20.04765 -78.7688,-10.82595 40.9928,48.032309 -35.4445,19.576299 -76.4373,-28.456009 -12.1588,-50.947692 -82.2119,-88.825288 -70.053,-37.8776 40.2845,30.809786 -30.107,-12.19922 -70.3914,-43.009 76.6341,-7.18325 11.7042,-52.18063 -64.93,-44.99739 -27.924,101.89331 -91.261,55.32259 -63.3371,-46.57071 72.548,-19.93964 21.1085,-84.32884 -51.4396,-64.3892 -8.5563,77.93038 -59.8024,16.70773 -51.2461,-61.22264 3.7121,10.03054 -38.1214,-61.67886 -41.8335,-71.70939 7.7893,-17.60556 -34.8769,-84.8216 -42.6661,-67.21604 65.1199,50.7364 33.486,-24.04375 -31.6338,-74.78016 -18.6065,42.61008 -35.9122,-34.25307 -17.3057,-76.86314 39.1714,19.81704 21.1906,-55.61808 -17.9807,-75.43511 -34.5013,8.63108 -38.8003,-70.70586 -4.2991,-79.33694 2.6869,58.77028 11.2854,-19.08162 8.5985,-77.85189 -70.4757,0.6096 -65.9392,-77.85903 4.5364,-78.46864 36.3203,49.97821 53.6075,-28.45565 17.2873,-78.43386 -24.0553,72.39138 3.7912,-4.91222 27.8464,-77.3036 6.4483,-19.42873 39.7234,-95.16371 33.2751,-75.73498 -41.4698,25.15276 -8.7053,-48.68209 32.7645,-73.83485 23.5286,96.83441 67.2196,28.84714 43.6911,-67.98726 -86.6948,-9.99709 -38.5002,-72.95936 48.1946,-62.96228 3.0669,-5.38849 67.0014,-56.90172 63.9344,-51.51323 -4.8094,13.76495 61.9129,-34.03268 66.7222,-47.79763 -59.9293,68.30082 7.0263,22.37627 66.9555,-45.92455 -27.1668,-14.37169 44.0011,-54.38668 71.168,-40.01496 -20.3314,26.95958 51.2129,-7.50203 71.5443,-34.46163 0.876,-33.14023 75.597,-58.07313 74.7209,-24.9329 -72.0225,60.4854 6.3948,56.02616 78.4173,-4.45925 1.2154,-39.57436 80.3105,-52.32136 79.0951,-12.747 -40.1485,20.1697 36.9846,29.0726 77.1332,8.9029 -12.2484,-48.394 66.3867,-36.6999 78.6351,11.694 -71.8579,67.55328 4.2083,87.30971 76.0662,19.75642 0.3718,-52.83741 74.9209,-22.85984 74.5491,29.97757 -33.9489,-10.35172 40.1254,16.86636 74.0742,27.21807 -1.4833,-20.48227 67.2863,17.61916 68.7697,38.10144 -74.2698,-2.75001 -6.7981,41.29007 67.4717,44.04008 -6.3553,-37.64322 49.1756,19.85886 55.5309,57.50207 -40.1942,-6.34426 17.2188,46.68227 57.4131,53.02652 4.9501,-39.20118 58.6533,18.64007 53.7032,57.84124 -76.0023,-7.21452 -26.6823,58.507 49.32,65.72152 69.0878,-80.24211 100.8308,-9.34646 31.743,70.89565 -50.8561,13.28527 -16.1919,85.04614 34.6642,71.76086 1.3649,-41.61647 13.7098,38.41465 12.345,80.03111 -23.5024,-30.25859 -16.2834,52.44623 7.2189,82.70481 30.5558,-73.3992 41.4104,6.52666 10.8547,79.92587 -1.7265,7.56534 -11.2854,88.79245 -9.5588,81.22711 1.6532,-62.18203 -3.7705,15.86693 -5.4236,78.04895 -42.1672,-58.46578 -56.2176,22.924 -14.0505,81.38978 87.8529,-3.07745 68.5287,72.43597 -19.3242,75.51343 -9.8037,-7.79639 -43.4816,62.98777 -33.6779,70.78415 54.3962,-28.0801 13.6831,43.81371 z"
       inkscape:randomized="0.07"
       inkscape:rounded="1.35"
       inkscape:flatsided="false"
       sodipodi:arg2="0.62177355"
       sodipodi:arg1="0.52359878"
       sodipodi:r2="461.5853"
       sodipodi:r1="497.93451"
       sodipodi:cy="-541.65851"
       sodipodi:cx="-1983.9396"
       sodipodi:sides="32"
       id="path3736"
       style="color:#000000;fill:#333333;fill-opacity:1;stroke:none;stroke-width:2;marker:none;visibility:visible;display:inline;overflow:visible;enable-background:accumulate"
       sodipodi:type="star" />
    <text
       inkscape:export-ydpi="45.242687"
       inkscape:export-xdpi="45.242687"
       inkscape:export-filename="/home/www/mpcat.org/static/mpcat.org-white.png"
       transform="matrix(1.14624,0,0,0.87241764,0,8)"
       sodipodi:linespacing="125%"
       id="text3738"
       y="608.33679"
       x="130.75237"
       style="font-size:186.03936768px;font-style:normal;font-variant:normal;font-weight:bold;font-stretch:normal;text-align:center;line-height:125%;letter-spacing:0px;word-spacing:0px;writing-mode:lr-tb;text-anchor:middle;fill:#ffffff;fill-opacity:1;stroke:none;filter:url(#filter4580);font-family:Bitstream Vera Sans;-inkscape-font-specification:Sans Bold"
       xml:space="preserve"><tspan
         style="font-style:normal;font-variant:normal;font-weight:normal;font-stretch:normal;fill:#ffffff;font-family:Purisa;-inkscape-font-specification:Purisa"
         y="608.33679"
         x="130.75237"
         id="tspan3740"
         sodipodi:role="line">MP</tspan></text>
    <g
       id="g4760"
       transform="translate(0,8)"
       inkscape:export-filename="/home/www/mpcat.org/static/mpcat.org-white.png"
       inkscape:export-xdpi="45.242687"
       inkscape:export-ydpi="45.242687">
      <path
         style="font-size:94.36105347px;font-style:normal;font-variant:normal;font-weight:bold;font-stretch:normal;text-align:center;line-height:125%;letter-spacing:0px;word-spacing:0px;writing-mode:lr-tb;text-anchor:middle;fill:#ffffff;fill-opacity:1;stroke:none;filter:url(#filter4616);font-family:Purisa;-inkscape-font-specification:Purisa Bold"
         d="m 580.36254,399.04903 c -9.37321,1.01766 -19.89163,5.51305 -23.62955,14.71929 -0.93594,4.77411 -0.64995,10.27059 1.64319,14.58043 1.3729,1.87382 2.32275,4.57841 4.72442,5.89706 11.07863,7.75548 25.67095,11.23907 39.06316,8.56765 7.22538,-1.33852 14.66217,-8.01609 12.52065,-15.92275 -0.90374,-1.57257 -1.77542,-2.91316 -2.03663,-4.74443 -1.33243,-2.50831 -3.7391,-4.16821 -4.07326,-7.10507 -4.4294,-10.9685 -16.93519,-16.41224 -28.21198,-15.99218 z m 0.3703,10.11372 c 9.05664,0.27572 19.62067,4.10767 21.63921,14.00184 0.227,2.55475 2.35693,6.34536 0.27772,8.42425 -3.52093,2.11471 -7.68984,4.84187 -11.91892,2.75409 -6.63121,-2.15125 -14.2634,-1.81229 -19.61798,-6.92253 -3.93612,-2.1439 -7.20064,-7.45465 -4.17358,-11.6386 3.27505,-3.95067 8.8775,-5.82231 13.79355,-6.61905 z"
         id="path3744"
         inkscape:connector-curvature="0"
         inkscape:export-filename="/home/www/mpcat.org/static/mpcat.org-white.png"
         inkscape:export-xdpi="45.242687"
         inkscape:export-ydpi="45.242687" />
      <path
         style="font-size:94.36105347px;font-style:normal;font-variant:normal;font-weight:bold;font-stretch:normal;text-align:center;line-height:125%;letter-spacing:0px;word-spacing:0px;writing-mode:lr-tb;text-anchor:middle;fill:#ffffff;fill-opacity:1;stroke:none;filter:url(#filter4604);font-family:Purisa;-inkscape-font-specification:Purisa Bold"
         d="m 603.36722,448.15962 c -2.94954,0.0832 -4.26087,3.60406 -3.88811,5.78588 -4.78823,0.58976 -9.60638,0.86385 -14.41843,1.18032 -0.83994,-3.92456 -6.49378,-5.92219 -8.88712,-2.10605 -1.40961,3.89495 -6.84096,2.43496 -10.06744,2.86979 -4.67698,-1.04709 -13.02495,2.79873 -8.42425,8.21596 3.98818,2.9281 9.62943,0.37816 14.16385,1.04146 -2.27188,7.91037 -7.59371,14.65004 -9.78972,22.51867 -0.62887,4.29664 5.42112,5.33242 7.68366,2.40692 3.90709,-2.97126 5.47936,-7.80866 7.84566,-11.89578 1.22452,-2.80813 2.16684,-5.73031 3.14752,-8.63254 2.60322,5.04274 5.1171,10.40631 9.99801,13.56212 4.6536,4.33362 12.8054,8.32122 18.4454,3.61039 4.53885,-4.89735 3.10689,-12.46899 4.53613,-18.51483 -0.10898,-4.68959 2.95354,-10.96351 -1.42116,-14.48289 -2.50499,-2.15363 -5.25491,-5.59099 -8.924,-5.55942 z m 0.32402,18.12139 c -0.0731,4.53313 -0.92029,9.109 -2.22179,13.28439 -5.62828,-2.27776 -10.27206,-6.57743 -12.38179,-12.42808 -2.49535,-3.4951 3.97663,-1.68332 6.15061,-2.48895 2.84123,-0.25314 5.66231,-0.48399 8.45297,-0.95943 0,0.86403 0,1.72804 0,2.59207 z"
         id="path3746"
         inkscape:connector-curvature="0"
         inkscape:export-filename="/home/www/mpcat.org/static/mpcat.org-white.png"
         inkscape:export-xdpi="45.242687"
         inkscape:export-ydpi="45.242687" />
      <path
         style="font-size:94.36105347px;font-style:normal;font-variant:normal;font-weight:bold;font-stretch:normal;text-align:center;line-height:125%;letter-spacing:0px;word-spacing:0px;writing-mode:lr-tb;text-anchor:middle;fill:#ffffff;fill-opacity:1;stroke:none;filter:url(#filter4592);font-family:Purisa;-inkscape-font-specification:Purisa Bold"
         d="m 574.25265,498.14967 c -6.28218,0.49015 -14.41198,2.14597 -15.99219,9.34998 -2.63866,9.45212 4.08653,18.565 11.17833,24.04615 -3.99562,0.16984 -11.02547,-0.80665 -11.91892,4.55927 -0.64932,4.1194 3.76232,6.13553 7.26707,5.5776 8.31562,-0.37008 17.50162,0.25818 24.92559,-3.98069 3.91855,-3.6148 3.7541,-9.63567 4.28156,-14.58043 0.11587,-3.05102 -2.07284,-5.27445 -2.89294,-8.0771 -2.25592,-4.30672 -8.76232,-2.0771 -9.23427,2.3375 -1.12258,3.19114 -0.77281,7.21912 0.43973,9.92858 -7.43405,-1.7501 -15.95946,-8.3391 -14.48787,-17.03365 1.57954,-3.18832 6.40434,-1.60681 9.28057,-2.19863 8.53792,-0.83049 15.75933,5.0925 21.68549,10.43773 3.5604,3.53534 7.00681,8.68176 7.38279,13.46954 -3.8836,0.65359 -3.73342,6.05089 -0.324,7.22079 3.07517,2.38713 7.63537,1.04654 8.79454,-2.63836 2.03667,-3.87553 2.18601,-9.20495 -1.24975,-12.26608 -4.18703,-11.3487 -13.85212,-20.12892 -24.99503,-24.30072 -4.5994,-1.24468 -9.36722,-1.88976 -14.1407,-1.85148 z"
         id="path3748"
         inkscape:connector-curvature="0"
         inkscape:export-filename="/home/www/mpcat.org/static/mpcat.org-white.png"
         inkscape:export-xdpi="45.242687"
         inkscape:export-ydpi="45.242687" />
    </g>
    <g
       transform="matrix(0.95465227,0,0,0.95465227,9.1398026,-494.55337)"
       id="g4739"
       inkscape:export-filename="/home/www/mpcat.org/static/mpcat.org.png"
       inkscape:export-xdpi="45.242687"
       inkscape:export-ydpi="45.242687">
      <path
         sodipodi:nodetypes="ccccccccccccccccccccccccc"
         style="fill:#333333"
         d="m 390.53443,712.31784 c -5.17584,1.70341 -5.29118,8.46956 -5.88796,13.02491 -0.46827,5.12419 1.03612,13.15022 7.44915,13.35937 5.50271,-0.80447 8.40145,-7.42236 8.05131,-12.48958 -1.06889,-4.90706 -2.75293,-10.73361 -7.2038,-13.53787 -0.74866,-0.32692 -1.59245,-0.44498 -2.4087,-0.35683 z m 66.57415,0.28995 c -5.40129,1.62618 -7.82522,7.81451 -9.23348,12.80184 -1.12328,5.14849 1.0365,12.02745 6.3787,13.76095 7.37165,-0.37949 10.62017,-8.82913 10.72765,-15.25522 0.35114,-4.70598 -2.31194,-11.46982 -7.87287,-11.30757 z m -38.38331,35.75149 c -2.77791,-0.80933 -6.05112,1.11168 -4.95125,4.21524 0.79078,5.57741 6.18058,9.71147 6.13333,15.41125 -0.97597,4.73443 -6.05895,7.49593 -10.57163,5.86581 -4.38173,-0.3915 -3.4592,6.10065 -0.60214,7.5829 4.26345,2.81086 9.45591,0.32902 13.31485,-1.71727 0.76501,3.55122 3.75752,6.82319 7.76141,5.99946 4.56114,-0.66989 10.75839,0.2152 13.82779,-3.92536 1.78186,-3.47994 -2.46332,-6.18165 -5.64267,-5.66485 -2.93228,-0.37149 -6.68059,1.0271 -9.18879,-0.22317 -1.26972,-5.53531 -1.49354,-11.88013 2.9886,-16.10262 2.67826,-2.24222 8.76606,-4.02746 6.60164,-8.67585 -2.32021,-3.05934 -7.17505,-1.78678 -10.54822,-2.55924 -3.03827,-0.14952 -6.08016,-0.29307 -9.12292,-0.2063 z"
         id="path4628"
         inkscape:connector-curvature="0" />
      <path
         sodipodi:nodetypes="ccccccccccccccccccccccccccccccccccccccccccccccccccccccccccccccccccccccccccccccccccccccccccccccccccccccccccccccccccccccccccccccc"
         style="fill:#333333"
         d="m 361.55105,629.32651 c -6.47147,1.44659 -10.66374,9.38875 -10.42775,17.17717 -0.92832,18.74903 -0.36102,38.07675 3.429,56.46157 1.78112,4.06091 -2.46874,7.26622 -3.70796,10.54875 -4.8152,8.31985 -8.09966,18.01677 -8.43298,28.26677 0.20546,4.12641 -4.0089,2.62271 -6.23912,2.85953 -14.55791,-0.25464 -28.81841,-5.37945 -43.27293,-6.93788 -3.72686,0.15411 -4.17048,7.41246 -0.49258,8.57969 7.33057,3.32125 15.45051,0.84806 23.03909,2.82195 9.05523,1.63129 18.47252,1.12899 27.28349,3.67506 0.35361,4.84281 1.48064,9.8077 2.23388,14.38825 -15.8802,5.60253 -32.91624,5.97646 -48.70361,12.00314 -2.85761,0.47644 -5.10007,5.93754 -1.77789,7.61711 5.40626,1.09254 10.56133,-2.82352 15.90775,-3.4069 12.53563,-2.87255 25.05325,-6.49081 37.76303,-7.70319 1.50738,1.69888 3.04515,4.98408 2.88684,7.13837 -9.26272,8.43139 -19.99123,14.63699 -28.16849,24.5413 -2.35339,4.17913 2.59584,7.51432 5.09449,4.14537 8.96988,-7.70836 17.70386,-16.44545 27.81621,-21.70556 7.81063,5.21917 14.67728,12.32766 23.05158,16.36258 12.14455,6.44302 25.16728,10.47308 38.02215,13.93427 16.07313,2.57781 32.90452,2.09717 48.2507,-4.13909 8.54467,-3.37274 16.03188,-9.89313 22.56169,-17.18004 2.34082,-2.59425 3.43472,-8.45236 7.52788,-6.68623 17.21468,3.68767 34.45912,11.02894 48.08441,24.73458 2.09501,2.5903 1.74488,7.08135 4.95687,8.62463 2.02787,1.99398 5.52483,2.92595 6.57137,-0.83247 2.01151,-5.93024 -3.4773,-10.64578 -6.81535,-13.84026 -9.77917,-8.91524 -19.98757,-17.54274 -31.97864,-21.11229 -6.27753,-2.78689 -13.67499,-4.0623 -19.54859,-6.67531 1.01768,-2.39458 1.38027,-7.26936 4.5231,-6.25823 14.58576,2.41875 29.02506,6.66049 43.07058,12.19814 3.87931,2.35642 8.35413,5.68674 12.7767,4.40502 3.51744,-1.91893 1.65079,-7.88067 -1.34031,-9.25046 -7.86823,-3.60956 -16.18116,-5.98434 -24.33184,-8.52908 -10.05524,-2.78428 -20.14557,-5.37358 -30.26084,-7.79058 -0.47507,-4.99582 1.24676,-11.79767 6.24001,-11.68435 14.01751,-1.35664 28.16283,-1.18652 42.21168,-0.57488 4.38016,-0.68936 2.46627,-8.85484 -1.28819,-8.98532 -12.15755,-1.91647 -24.48624,0.0322 -36.67729,0.2826 -2.42365,-0.45834 -6.37168,1.55135 -8.02858,-1.27237 -1.03321,-9.60879 -2.24647,-19.40602 -6.31564,-28.01187 -1.0603,-2.02828 -1.6224,-4.14772 0.007,-6.02946 5.87609,-11.46729 11.42083,-23.64932 14.08497,-36.86124 -1.06942,-10.59801 0.26072,-22.96295 -5.44747,-31.98967 -4.56885,-6.0701 -12.22502,-3.44841 -17.87203,-1.93759 -12.07645,4.47601 -24.44649,11.36513 -31.85232,24.12481 -1.64875,2.26715 -1.54825,5.80476 -2.75853,8.07455 -10.8604,0.65672 -21.97723,-2.6888 -32.7381,0.36496 -5.59223,0.93307 -12.08822,3.05531 -17.0764,3.47159 1.37564,-7.53883 -4.00365,-13.8589 -7.16446,-19.78058 -7.64465,-10.93828 -15.90602,-23.50089 -28.04101,-26.59039 -2.17617,-0.59901 -4.40496,-1.21908 -6.63591,-1.03647 z m 0.85219,8.20272 c 7.03436,-0.3682 13.81501,3.42065 18.75393,9.36104 7.91248,8.13977 14.27771,18.46432 18.1381,30.02926 1.45013,1.89181 -2.83236,1.0254 -3.80776,1.668 -2.27709,0.56895 -5.45607,0.79531 -5.87596,-2.78534 -3.06245,-8.63307 -10.23652,-13.6899 -15.92074,-19.43263 -2.61981,-2.33009 -7.44569,-6.30527 -9.79115,-1.72025 -1.58903,6.5739 -0.12252,13.90337 -0.32183,20.75195 -0.10173,6.52874 1.10174,13.29046 0.77127,19.68127 -0.80925,1.86294 -2.08235,3.29914 -3.41867,4.55503 -4.5743,-15.36891 -3.44316,-32.05255 -3.47814,-48.05119 0.27938,-4.74494 0.50311,-12.34151 4.95095,-14.05714 z m 135.58998,9.39349 c 4.80571,0.64299 5.6701,8.04859 6.07364,12.73038 0.68697,7.58427 1.17132,15.34472 -1.8535,22.2559 -2.76436,8.60159 -6.25056,16.84821 -10.95663,24.10266 -2.64989,-2.65019 -2.44425,-5.51127 0.40344,-7.89507 6.15265,-7.92938 5.84723,-19.98131 8.03404,-29.99885 0.75935,-3.04555 0.5614,-7.92369 -2.87188,-8.13567 -11.39752,-0.27739 -22.30111,6.35586 -30.72322,15.00566 -1.33541,1.08193 -1.68955,4.91525 -3.71193,2.502 -2.27982,-0.94049 -3.20204,-3.56326 -1.76816,-5.87603 5.18959,-10.56013 15.2053,-16.26966 24.29819,-20.67096 4.16967,-1.82203 8.60657,-3.42826 13.07601,-4.02002 z m -128.30477,15.70582 c 5.39359,3.53853 10.03564,9.41626 13.67532,15.40154 2.11469,3.41132 -2.15149,5.14057 -4.18204,5.82959 -2.87721,0.82046 -5.0453,3.58632 -7.26414,5.4344 -2.02827,-6.2121 -1.73891,-13.58658 -2.34315,-20.33953 0.003,-2.04506 -0.2856,-4.40175 0.11402,-6.326 z m 121.24693,6.66385 c 1.67947,0.0862 0.22923,3.53243 0.47304,4.6949 -0.77526,8.08084 -2.48967,16.72781 -8.35762,21.52904 -4.17263,-4.0898 -8.39079,-8.45172 -12.47869,-12.41678 2.90372,-6.33492 9.10807,-9.69157 14.50666,-12.2291 1.91864,-0.67044 3.85449,-1.35635 5.85661,-1.57806 z m -64.25429,10.90848 c 14.3311,-0.0516 30.06303,0.39382 41.88824,11.74134 6.04357,5.84904 12.34192,11.98635 16.99891,19.35957 0.61999,2.92348 -0.60104,8.186 3.16268,8.36546 3.98508,0.8773 5.2091,6.92637 6.39928,10.84466 1.01495,5.48702 2.42702,11.63124 1.23443,17.08327 -4.1098,3.29712 -10.82802,0.6795 -13.90309,6.09973 -1.25879,3.17947 1.38814,6.8 4.20321,5.69283 2.76449,0.0556 6.26527,-1.64257 8.59878,-0.72976 -0.7576,2.83235 -0.50792,8.13825 -4.06151,6.49139 -3.39838,0.53178 -8.15053,-2.07132 -10.86835,1.25927 -1.86242,4.12349 2.09843,7.73261 5.31596,7.70891 1.27882,0.6191 4.59888,-0.22849 4.73242,1.90063 -0.47733,3.92493 -3.53353,6.35471 -6.70209,5.01997 -2.65954,-1.25314 -7.83279,-1.63192 -7.52066,3.30653 0.54657,4.09719 5.21195,4.13123 7.06787,5.70908 -10.18938,13.29777 -25.36602,20.42465 -40.43668,21.15978 -15.43522,1.49009 -31.07647,-0.14563 -45.92075,-6.11403 -12.10238,-3.54101 -23.89074,-9.68547 -33.87391,-18.74095 -2.05776,-2.14445 2.26065,-2.43573 3.06063,-3.61515 2.99229,-2.50366 6.91612,-4.2468 8.88542,-8.10901 -0.13621,-4.1244 -4.62108,-3.01314 -6.47365,-1.43278 -3.64161,2.18 -7.37259,5.72679 -11.61106,5.41229 -1.2031,-0.98056 -3.20074,-4.76319 -0.82468,-5.384 4.48035,-2.22038 10.91705,-1.98542 13.63839,-7.52202 0.71712,-3.78539 -3.48866,-4.48531 -5.45813,-2.88883 -3.86665,1.4997 -8.1648,3.44958 -12.24936,2.8157 -2.01554,-3.93333 -3.08464,-9.46115 -2.20422,-13.73307 3.19162,-1.89774 6.30505,1.56318 9.4376,0.54485 2.5778,-1.50686 1.32957,-6.03727 -1.38497,-6.25802 -2.69015,-1.21548 -6.10318,0.57054 -8.50568,-1.19502 -1.24101,-8.08411 1.61419,-16.11997 4.28911,-23.36249 3.73314,-7.58612 8.97945,-14.30536 14.67229,-19.62718 6.64248,-4.46963 11.40179,-13.39419 19.60289,-14.23467 4.27434,-0.43501 8.21414,-4.83348 12.47558,-2.2425 5.53373,0.81231 10.81427,-2.39983 16.42551,-1.69646 3.0069,0.31348 6.06292,-0.50829 8.0008,-3.32405 0.57037,-0.17697 1.2791,-0.27032 1.90879,-0.30527 z"
         id="path4628-8"
         inkscape:connector-curvature="0" />
    </g>
    <g
       inkscape:export-ydpi="45.242687"
       inkscape:export-xdpi="45.242687"
       inkscape:export-filename="/home/www/mpcat.org/static/mpcat.org-white.png"
       style="fill:#ffffff"
       id="g4743"
       transform="matrix(0.95088802,0,0,0.95088802,10.736995,-231.63986)">
      <path
         inkscape:connector-curvature="0"
         id="path4745"
         d="m 390.53443,712.31784 c -5.17584,1.70341 -5.29118,8.46956 -5.88796,13.02491 -0.46827,5.12419 1.03612,13.15022 7.44915,13.35937 5.50271,-0.80447 8.40145,-7.42236 8.05131,-12.48958 -1.06889,-4.90706 -2.75293,-10.73361 -7.2038,-13.53787 -0.74866,-0.32692 -1.59245,-0.44498 -2.4087,-0.35683 z m 66.57415,0.28995 c -5.40129,1.62618 -7.82522,7.81451 -9.23348,12.80184 -1.12328,5.14849 1.0365,12.02745 6.3787,13.76095 7.37165,-0.37949 10.62017,-8.82913 10.72765,-15.25522 0.35114,-4.70598 -2.31194,-11.46982 -7.87287,-11.30757 z m -38.38331,35.75149 c -2.77791,-0.80933 -6.05112,1.11168 -4.95125,4.21524 0.79078,5.57741 6.18058,9.71147 6.13333,15.41125 -0.97597,4.73443 -6.05895,7.49593 -10.57163,5.86581 -4.38173,-0.3915 -3.4592,6.10065 -0.60214,7.5829 4.26345,2.81086 9.45591,0.32902 13.31485,-1.71727 0.76501,3.55122 3.75752,6.82319 7.76141,5.99946 4.56114,-0.66989 10.75839,0.2152 13.82779,-3.92536 1.78186,-3.47994 -2.46332,-6.18165 -5.64267,-5.66485 -2.93228,-0.37149 -6.68059,1.0271 -9.18879,-0.22317 -1.26972,-5.53531 -1.49354,-11.88013 2.9886,-16.10262 2.67826,-2.24222 8.76606,-4.02746 6.60164,-8.67585 -2.32021,-3.05934 -7.17505,-1.78678 -10.54822,-2.55924 -3.03827,-0.14952 -6.08016,-0.29307 -9.12292,-0.2063 z"
         style="fill:#ffffff"
         sodipodi:nodetypes="ccccccccccccccccccccccccc" />
      <path
         inkscape:connector-curvature="0"
         id="path4747"
         d="m 361.55105,629.32651 c -6.47147,1.44659 -10.66374,9.38875 -10.42775,17.17717 -0.92832,18.74903 -0.36102,38.07675 3.429,56.46157 1.78112,4.06091 -2.46874,7.26622 -3.70796,10.54875 -4.8152,8.31985 -8.09966,18.01677 -8.43298,28.26677 0.20546,4.12641 -4.0089,2.62271 -6.23912,2.85953 -14.55791,-0.25464 -28.81841,-5.37945 -43.27293,-6.93788 -3.72686,0.15411 -4.17048,7.41246 -0.49258,8.57969 7.33057,3.32125 15.45051,0.84806 23.03909,2.82195 9.05523,1.63129 18.47252,1.12899 27.28349,3.67506 0.35361,4.84281 1.48064,9.8077 2.23388,14.38825 -15.8802,5.60253 -32.91624,5.97646 -48.70361,12.00314 -2.85761,0.47644 -5.10007,5.93754 -1.77789,7.61711 5.40626,1.09254 10.56133,-2.82352 15.90775,-3.4069 12.53563,-2.87255 25.05325,-6.49081 37.76303,-7.70319 1.50738,1.69888 3.04515,4.98408 2.88684,7.13837 -9.26272,8.43139 -19.99123,14.63699 -28.16849,24.5413 -2.35339,4.17913 2.59584,7.51432 5.09449,4.14537 8.96988,-7.70836 17.70386,-16.44545 27.81621,-21.70556 7.81063,5.21917 14.67728,12.32766 23.05158,16.36258 12.14455,6.44302 25.16728,10.47308 38.02215,13.93427 16.07313,2.57781 32.90452,2.09717 48.2507,-4.13909 8.54467,-3.37274 16.03188,-9.89313 22.56169,-17.18004 2.34082,-2.59425 3.43472,-8.45236 7.52788,-6.68623 17.21468,3.68767 34.45912,11.02894 48.08441,24.73458 2.09501,2.5903 1.74488,7.08135 4.95687,8.62463 2.02787,1.99398 5.52483,2.92595 6.57137,-0.83247 2.01151,-5.93024 -3.4773,-10.64578 -6.81535,-13.84026 -9.77917,-8.91524 -19.98757,-17.54274 -31.97864,-21.11229 -6.27753,-2.78689 -13.67499,-4.0623 -19.54859,-6.67531 1.01768,-2.39458 1.38027,-7.26936 4.5231,-6.25823 14.58576,2.41875 29.02506,6.66049 43.07058,12.19814 3.87931,2.35642 8.35413,5.68674 12.7767,4.40502 3.51744,-1.91893 1.65079,-7.88067 -1.34031,-9.25046 -7.86823,-3.60956 -16.18116,-5.98434 -24.33184,-8.52908 -10.05524,-2.78428 -20.14557,-5.37358 -30.26084,-7.79058 -0.47507,-4.99582 1.24676,-11.79767 6.24001,-11.68435 14.01751,-1.35664 28.16283,-1.18652 42.21168,-0.57488 4.38016,-0.68936 2.46627,-8.85484 -1.28819,-8.98532 -12.15755,-1.91647 -24.48624,0.0322 -36.67729,0.2826 -2.42365,-0.45834 -6.37168,1.55135 -8.02858,-1.27237 -1.03321,-9.60879 -2.24647,-19.40602 -6.31564,-28.01187 -1.0603,-2.02828 -1.6224,-4.14772 0.007,-6.02946 5.87609,-11.46729 11.42083,-23.64932 14.08497,-36.86124 -1.06942,-10.59801 0.26072,-22.96295 -5.44747,-31.98967 -4.56885,-6.0701 -12.22502,-3.44841 -17.87203,-1.93759 -12.07645,4.47601 -24.44649,11.36513 -31.85232,24.12481 -1.64875,2.26715 -1.54825,5.80476 -2.75853,8.07455 -10.8604,0.65672 -21.97723,-2.6888 -32.7381,0.36496 -5.59223,0.93307 -12.08822,3.05531 -17.0764,3.47159 1.37564,-7.53883 -4.00365,-13.8589 -7.16446,-19.78058 -7.64465,-10.93828 -15.90602,-23.50089 -28.04101,-26.59039 -2.17617,-0.59901 -4.40496,-1.21908 -6.63591,-1.03647 z m 0.85219,8.20272 c 7.03436,-0.3682 13.81501,3.42065 18.75393,9.36104 7.91248,8.13977 14.27771,18.46432 18.1381,30.02926 1.45013,1.89181 -2.83236,1.0254 -3.80776,1.668 -2.27709,0.56895 -5.45607,0.79531 -5.87596,-2.78534 -3.06245,-8.63307 -10.23652,-13.6899 -15.92074,-19.43263 -2.61981,-2.33009 -7.44569,-6.30527 -9.79115,-1.72025 -1.58903,6.5739 -0.12252,13.90337 -0.32183,20.75195 -0.10173,6.52874 1.10174,13.29046 0.77127,19.68127 -0.80925,1.86294 -2.08235,3.29914 -3.41867,4.55503 -4.5743,-15.36891 -3.44316,-32.05255 -3.47814,-48.05119 0.27938,-4.74494 0.50311,-12.34151 4.95095,-14.05714 z m 135.58998,9.39349 c 4.80571,0.64299 5.6701,8.04859 6.07364,12.73038 0.68697,7.58427 1.17132,15.34472 -1.8535,22.2559 -2.76436,8.60159 -6.25056,16.84821 -10.95663,24.10266 -2.64989,-2.65019 -2.44425,-5.51127 0.40344,-7.89507 6.15265,-7.92938 5.84723,-19.98131 8.03404,-29.99885 0.75935,-3.04555 0.5614,-7.92369 -2.87188,-8.13567 -11.39752,-0.27739 -22.30111,6.35586 -30.72322,15.00566 -1.33541,1.08193 -1.68955,4.91525 -3.71193,2.502 -2.27982,-0.94049 -3.20204,-3.56326 -1.76816,-5.87603 5.18959,-10.56013 15.2053,-16.26966 24.29819,-20.67096 4.16967,-1.82203 8.60657,-3.42826 13.07601,-4.02002 z m -128.30477,15.70582 c 5.39359,3.53853 10.03564,9.41626 13.67532,15.40154 2.11469,3.41132 -2.15149,5.14057 -4.18204,5.82959 -2.87721,0.82046 -5.0453,3.58632 -7.26414,5.4344 -2.02827,-6.2121 -1.73891,-13.58658 -2.34315,-20.33953 0.003,-2.04506 -0.2856,-4.40175 0.11402,-6.326 z m 121.24693,6.66385 c 1.67947,0.0862 0.22923,3.53243 0.47304,4.6949 -0.77526,8.08084 -2.48967,16.72781 -8.35762,21.52904 -4.17263,-4.0898 -8.39079,-8.45172 -12.47869,-12.41678 2.90372,-6.33492 9.10807,-9.69157 14.50666,-12.2291 1.91864,-0.67044 3.85449,-1.35635 5.85661,-1.57806 z m -64.25429,10.90848 c 14.3311,-0.0516 30.06303,0.39382 41.88824,11.74134 6.04357,5.84904 12.34192,11.98635 16.99891,19.35957 0.61999,2.92348 -0.60104,8.186 3.16268,8.36546 3.98508,0.8773 5.2091,6.92637 6.39928,10.84466 1.01495,5.48702 2.42702,11.63124 1.23443,17.08327 -4.1098,3.29712 -10.82802,0.6795 -13.90309,6.09973 -1.25879,3.17947 1.38814,6.8 4.20321,5.69283 2.76449,0.0556 6.26527,-1.64257 8.59878,-0.72976 -0.7576,2.83235 -0.50792,8.13825 -4.06151,6.49139 -3.39838,0.53178 -8.15053,-2.07132 -10.86835,1.25927 -1.86242,4.12349 2.09843,7.73261 5.31596,7.70891 1.27882,0.6191 4.59888,-0.22849 4.73242,1.90063 -0.47733,3.92493 -3.53353,6.35471 -6.70209,5.01997 -2.65954,-1.25314 -7.83279,-1.63192 -7.52066,3.30653 0.54657,4.09719 5.21195,4.13123 7.06787,5.70908 -10.18938,13.29777 -25.36602,20.42465 -40.43668,21.15978 -15.43522,1.49009 -31.07647,-0.14563 -45.92075,-6.11403 -12.10238,-3.54101 -23.89074,-9.68547 -33.87391,-18.74095 -2.05776,-2.14445 2.26065,-2.43573 3.06063,-3.61515 2.99229,-2.50366 6.91612,-4.2468 8.88542,-8.10901 -0.13621,-4.1244 -4.62108,-3.01314 -6.47365,-1.43278 -3.64161,2.18 -7.37259,5.72679 -11.61106,5.41229 -1.2031,-0.98056 -3.20074,-4.76319 -0.82468,-5.384 4.48035,-2.22038 10.91705,-1.98542 13.63839,-7.52202 0.71712,-3.78539 -3.48866,-4.48531 -5.45813,-2.88883 -3.86665,1.4997 -8.1648,3.44958 -12.24936,2.8157 -2.01554,-3.93333 -3.08464,-9.46115 -2.20422,-13.73307 3.19162,-1.89774 6.30505,1.56318 9.4376,0.54485 2.5778,-1.50686 1.32957,-6.03727 -1.38497,-6.25802 -2.69015,-1.21548 -6.10318,0.57054 -8.50568,-1.19502 -1.24101,-8.08411 1.61419,-16.11997 4.28911,-23.36249 3.73314,-7.58612 8.97945,-14.30536 14.67229,-19.62718 6.64248,-4.46963 11.40179,-13.39419 19.60289,-14.23467 4.27434,-0.43501 8.21414,-4.83348 12.47558,-2.2425 5.53373,0.81231 10.81427,-2.39983 16.42551,-1.69646 3.0069,0.31348 6.06292,-0.50829 8.0008,-3.32405 0.57037,-0.17697 1.2791,-0.27032 1.90879,-0.30527 z"
         style="fill:#ffffff"
         sodipodi:nodetypes="ccccccccccccccccccccccccccccccccccccccccccccccccccccccccccccccccccccccccccccccccccccccccccccccccccccccccccccccccccccccccccccccc" />
    </g>
    <path
       inkscape:export-ydpi="45.242687"
       inkscape:export-xdpi="45.242687"
       inkscape:export-filename="/home/www/mpcat.org/static/mpcat.org.png"
       transform="matrix(0.21192563,0,0,0.21192563,1255.3589,475.4403)"
       d="m -1521.2135,-284.90359 c -40.7131,71.89381 -21.9737,-29.56851 -67.2914,34.84149 -45.3176,64.41 22.1664,-56.7165 -31.2106,3.24854 -53.377,59.96504 -18.0035,10.03259 -71.9073,67.79229 -53.9039,57.75969 103.6242,-23.67104 40.3293,28.61273 -63.2949,52.283765 -4.4989,-63.21067 -76.7371,-22.37627 -72.2381,40.8344 67.1662,56.98516 -3.0637,91.982579 -70.2298,34.997416 -45.8106,-45.980849 -124.6818,-24.673919 -78.8711,21.306926 99.9713,34.494942 21.81,61.847193 -78.1613,27.352251 11.9576,-62.113893 -67.5134,-40.762944 -79.4709,21.350945 34.0536,36.207271 -46.888,33.28408 -80.9416,-2.923191 47.0081,-6.015554 -35.8367,-2.428271 -82.8449,3.587283 16.7104,-22.971323 -63.7766,-27.479269 -80.4869,-4.507947 36.2332,30.8736 -42.5356,20.04765 -78.7688,-10.82595 40.9928,48.032309 -35.4445,19.576299 -76.4373,-28.456009 -12.1588,-50.947692 -82.2119,-88.825288 -70.053,-37.8776 40.2845,30.809786 -30.107,-12.19922 -70.3914,-43.009 76.6341,-7.18325 11.7042,-52.18063 -64.93,-44.99739 -27.924,101.89331 -91.261,55.32259 -63.3371,-46.57071 72.548,-19.93964 21.1085,-84.32884 -51.4396,-64.3892 -8.5563,77.93038 -59.8024,16.70773 -51.2461,-61.22264 3.7121,10.03054 -38.1214,-61.67886 -41.8335,-71.70939 7.7893,-17.60556 -34.8769,-84.8216 -42.6661,-67.21604 65.1199,50.7364 33.486,-24.04375 -31.6338,-74.78016 -18.6065,42.61008 -35.9122,-34.25307 -17.3057,-76.86314 39.1714,19.81704 21.1906,-55.61808 -17.9807,-75.43511 -34.5013,8.63108 -38.8003,-70.70586 -4.2991,-79.33694 2.6869,58.77028 11.2854,-19.08162 8.5985,-77.85189 -70.4757,0.6096 -65.9392,-77.85903 4.5364,-78.46864 36.3203,49.97821 53.6075,-28.45565 17.2873,-78.43386 -24.0553,72.39138 3.7912,-4.91222 27.8464,-77.3036 6.4483,-19.42873 39.7234,-95.16371 33.2751,-75.73498 -41.4698,25.15276 -8.7053,-48.68209 32.7645,-73.83485 23.5286,96.83441 67.2196,28.84714 43.6911,-67.98726 -86.6948,-9.99709 -38.5002,-72.95936 48.1946,-62.96228 3.0669,-5.38849 67.0014,-56.90172 63.9344,-51.51323 -4.8094,13.76495 61.9129,-34.03268 66.7222,-47.79763 -59.9293,68.30082 7.0263,22.37627 66.9555,-45.92455 -27.1668,-14.37169 44.0011,-54.38668 71.168,-40.01496 -20.3314,26.95958 51.2129,-7.50203 71.5443,-34.46163 0.876,-33.14023 75.597,-58.07313 74.7209,-24.9329 -72.0225,60.4854 6.3948,56.02616 78.4173,-4.45925 1.2154,-39.57436 80.3105,-52.32136 79.0951,-12.747 -40.1485,20.1697 36.9846,29.0726 77.1332,8.9029 -12.2484,-48.394 66.3867,-36.6999 78.6351,11.694 -71.8579,67.55328 4.2083,87.30971 76.0662,19.75642 0.3718,-52.83741 74.9209,-22.85984 74.5491,29.97757 -33.9489,-10.35172 40.1254,16.86636 74.0742,27.21807 -1.4833,-20.48227 67.2863,17.61916 68.7697,38.10144 -74.2698,-2.75001 -6.7981,41.29007 67.4717,44.04008 -6.3553,-37.64322 49.1756,19.85886 55.5309,57.50207 -40.1942,-6.34426 17.2188,46.68227 57.4131,53.02652 4.9501,-39.20118 58.6533,18.64007 53.7032,57.84124 -76.0023,-7.21452 -26.6823,58.507 49.32,65.72152 69.0878,-80.24211 100.8308,-9.34646 31.743,70.89565 -50.8561,13.28527 -16.1919,85.04614 34.6642,71.76086 1.3649,-41.61647 13.7098,38.41465 12.345,80.03111 -23.5024,-30.25859 -16.2834,52.44623 7.2189,82.70481 30.5558,-73.3992 41.4104,6.52666 10.8547,79.92587 -1.7265,7.56534 -11.2854,88.79245 -9.5588,81.22711 1.6532,-62.18203 -3.7705,15.86693 -5.4236,78.04895 -42.1672,-58.46578 -56.2176,22.924 -14.0505,81.38978 87.8529,-3.07745 68.5287,72.43597 -19.3242,75.51343 -9.8037,-7.79639 -43.4816,62.98777 -33.6779,70.78415 54.3962,-28.0801 13.6831,43.81371 z"
       inkscape:randomized="0.07"
       inkscape:rounded="1.35"
       inkscape:flatsided="false"
       sodipodi:arg2="0.62177355"
       sodipodi:arg1="0.52359878"
       sodipodi:r2="461.5853"
       sodipodi:r1="497.93451"
       sodipodi:cy="-541.65851"
       sodipodi:cx="-1983.9396"
       sodipodi:sides="32"
       id="path3077"
       style="color:#000000;fill:#fff3a9;fill-opacity:1;stroke:none;stroke-width:2;marker:none;visibility:visible;display:inline;overflow:visible;enable-background:accumulate"
       sodipodi:type="star" />
    <text
       inkscape:export-ydpi="45.242687"
       inkscape:export-xdpi="45.242687"
       inkscape:export-filename="/home/www/mpcat.org/static/mpcat.org.png"
       transform="matrix(0.94436676,0,0,0.64751077,716.02033,-146.54234)"
       sodipodi:linespacing="125%"
       id="text3079"
       y="608.33679"
       x="130.75237"
       style="font-size:186.03936768px;font-style:normal;font-variant:normal;font-weight:bold;font-stretch:normal;text-align:center;line-height:125%;letter-spacing:0px;word-spacing:0px;writing-mode:lr-tb;text-anchor:middle;fill:#333333;fill-opacity:1;stroke:none;filter:url(#filter3705);font-family:Bitstream Vera Sans;-inkscape-font-specification:Sans Bold"
       xml:space="preserve"><tspan
         style="font-style:normal;font-variant:normal;font-weight:normal;font-stretch:normal;fill:#333333;font-family:Purisa;-inkscape-font-specification:Purisa"
         y="608.33679"
         x="130.75237"
         id="tspan3081"
         sodipodi:role="line">MP</tspan></text>
    <g
       inkscape:export-ydpi="45.242687"
       inkscape:export-xdpi="45.242687"
       inkscape:export-filename="/home/www/mpcat.org/static/mpcat.org.png"
       transform="matrix(0,-1,1,0,624.16793,1093.7258)"
       id="g3083"
       inkscape:transform-center-x="30.304576"
       inkscape:transform-center-y="54.548237">
      <path
         style="font-size:94.36105347px;font-style:normal;font-variant:normal;font-weight:bold;font-stretch:normal;text-align:center;line-height:125%;letter-spacing:0px;word-spacing:0px;writing-mode:lr-tb;text-anchor:middle;fill:#333333;fill-opacity:1;stroke:none;filter:url(#filter3693);font-family:Purisa;-inkscape-font-specification:Purisa Bold"
         d="m 580.36254,139.04903 c -9.37321,1.01766 -19.89163,5.51305 -23.62955,14.71929 -0.93594,4.77411 -0.64995,10.27059 1.64319,14.58043 1.3729,1.87382 2.32275,4.57841 4.72442,5.89706 11.07863,7.75548 25.67095,11.23907 39.06316,8.56765 7.22538,-1.33852 14.66217,-8.01609 12.52065,-15.92275 -0.90374,-1.57257 -1.77542,-2.91316 -2.03663,-4.74443 -1.33243,-2.50831 -3.7391,-4.16821 -4.07326,-7.10507 -4.4294,-10.9685 -16.93519,-16.41224 -28.21198,-15.99218 z m 0.3703,10.11372 c 9.05664,0.27572 19.62067,4.10767 21.63921,14.00184 0.227,2.55475 2.35693,6.34536 0.27772,8.42425 -3.52093,2.11471 -7.68984,4.84187 -11.91892,2.75409 -6.63121,-2.15125 -14.2634,-1.81229 -19.61798,-6.92253 -3.93612,-2.1439 -7.20064,-7.45465 -4.17358,-11.6386 3.27505,-3.95067 8.8775,-5.82231 13.79355,-6.61905 z"
         id="path3085"
         inkscape:connector-curvature="0"
         inkscape:export-filename="/tmp/mpcat.org.png"
         inkscape:export-xdpi="30.161787"
         inkscape:export-ydpi="30.161787" />
      <path
         style="font-size:94.36105347px;font-style:normal;font-variant:normal;font-weight:bold;font-stretch:normal;text-align:center;line-height:125%;letter-spacing:0px;word-spacing:0px;writing-mode:lr-tb;text-anchor:middle;fill:#333333;fill-opacity:1;stroke:none;filter:url(#filter3681);font-family:Purisa;-inkscape-font-specification:Purisa Bold"
         d="m 603.36722,188.15962 c -2.94954,0.0832 -4.26087,3.60406 -3.88811,5.78588 -4.78823,0.58976 -9.60638,0.86385 -14.41843,1.18032 -0.83994,-3.92456 -6.49378,-5.92219 -8.88712,-2.10605 -1.40961,3.89495 -6.84096,2.43496 -10.06744,2.86979 -4.67698,-1.04709 -13.02495,2.79873 -8.42425,8.21596 3.98818,2.9281 9.62943,0.37816 14.16385,1.04146 -2.27188,7.91037 -7.59371,14.65004 -9.78972,22.51867 -0.62887,4.29664 5.42112,5.33242 7.68366,2.40692 3.90709,-2.97126 5.47936,-7.80866 7.84566,-11.89578 1.22452,-2.80813 2.16684,-5.73031 3.14752,-8.63254 2.60322,5.04274 5.1171,10.40631 9.99801,13.56212 4.6536,4.33362 12.8054,8.32122 18.4454,3.61039 4.53885,-4.89735 3.10689,-12.46899 4.53613,-18.51483 -0.10898,-4.68959 2.95354,-10.96351 -1.42116,-14.48289 -2.50499,-2.15363 -5.25491,-5.59099 -8.924,-5.55942 z m 0.32402,18.12139 c -0.0731,4.53313 -0.92029,9.109 -2.22179,13.28439 -5.62828,-2.27776 -10.27206,-6.57743 -12.38179,-12.42808 -2.49535,-3.4951 3.97663,-1.68332 6.15061,-2.48895 2.84123,-0.25314 5.66231,-0.48399 8.45297,-0.95943 0,0.86403 0,1.72804 0,2.59207 z"
         id="path3087"
         inkscape:connector-curvature="0"
         inkscape:export-filename="/tmp/mpcat.org.png"
         inkscape:export-xdpi="30.161787"
         inkscape:export-ydpi="30.161787" />
      <path
         style="font-size:94.36105347px;font-style:normal;font-variant:normal;font-weight:bold;font-stretch:normal;text-align:center;line-height:125%;letter-spacing:0px;word-spacing:0px;writing-mode:lr-tb;text-anchor:middle;fill:#333333;fill-opacity:1;stroke:none;filter:url(#filter3669);font-family:Purisa;-inkscape-font-specification:Purisa Bold"
         d="m 574.25265,238.14967 c -6.28218,0.49015 -14.41198,2.14597 -15.99219,9.34998 -2.63866,9.45212 4.08653,18.565 11.17833,24.04615 -3.99562,0.16984 -11.02547,-0.80665 -11.91892,4.55927 -0.64932,4.1194 3.76232,6.13553 7.26707,5.5776 8.31562,-0.37008 17.50162,0.25818 24.92559,-3.98069 3.91855,-3.6148 3.7541,-9.63567 4.28156,-14.58043 0.11587,-3.05102 -2.07284,-5.27445 -2.89294,-8.0771 -2.25592,-4.30672 -8.76232,-2.0771 -9.23427,2.3375 -1.12258,3.19114 -0.77281,7.21912 0.43973,9.92858 -7.43405,-1.7501 -15.95946,-8.3391 -14.48787,-17.03365 1.57954,-3.18832 6.40434,-1.60681 9.28057,-2.19863 8.53792,-0.83049 15.75933,5.0925 21.68549,10.43773 3.5604,3.53534 7.00681,8.68176 7.38279,13.46954 -3.8836,0.65359 -3.73342,6.05089 -0.324,7.22079 3.07517,2.38713 7.63537,1.04654 8.79454,-2.63836 2.03667,-3.87553 2.18601,-9.20495 -1.24975,-12.26608 -4.18703,-11.3487 -13.85212,-20.12892 -24.99503,-24.30072 -4.5994,-1.24468 -9.36722,-1.88976 -14.1407,-1.85148 z"
         id="path3089"
         inkscape:connector-curvature="0"
         inkscape:export-filename="/tmp/mpcat.org.png"
         inkscape:export-xdpi="30.161787"
         inkscape:export-ydpi="30.161787" />
    </g>
    <g
       inkscape:export-ydpi="45.242687"
       inkscape:export-xdpi="45.242687"
       inkscape:export-filename="/home/www/mpcat.org/static/mpcat.org.png"
       id="g3105"
       transform="matrix(0.86173753,0,0,0.86173753,468.39756,-277.51965)">
      <path
         inkscape:connector-curvature="0"
         id="path3107"
         d="m 390.53443,712.31784 c -5.17584,1.70341 -5.29118,8.46956 -5.88796,13.02491 -0.46827,5.12419 1.03612,13.15022 7.44915,13.35937 5.50271,-0.80447 8.40145,-7.42236 8.05131,-12.48958 -1.06889,-4.90706 -2.75293,-10.73361 -7.2038,-13.53787 -0.74866,-0.32692 -1.59245,-0.44498 -2.4087,-0.35683 z m 66.57415,0.28995 c -5.40129,1.62618 -7.82522,7.81451 -9.23348,12.80184 -1.12328,5.14849 1.0365,12.02745 6.3787,13.76095 7.37165,-0.37949 10.62017,-8.82913 10.72765,-15.25522 0.35114,-4.70598 -2.31194,-11.46982 -7.87287,-11.30757 z m -38.38331,35.75149 c -2.77791,-0.80933 -6.05112,1.11168 -4.95125,4.21524 0.79078,5.57741 6.18058,9.71147 6.13333,15.41125 -0.97597,4.73443 -6.05895,7.49593 -10.57163,5.86581 -4.38173,-0.3915 -3.4592,6.10065 -0.60214,7.5829 4.26345,2.81086 9.45591,0.32902 13.31485,-1.71727 0.76501,3.55122 3.75752,6.82319 7.76141,5.99946 4.56114,-0.66989 10.75839,0.2152 13.82779,-3.92536 1.78186,-3.47994 -2.46332,-6.18165 -5.64267,-5.66485 -2.93228,-0.37149 -6.68059,1.0271 -9.18879,-0.22317 -1.26972,-5.53531 -1.49354,-11.88013 2.9886,-16.10262 2.67826,-2.24222 8.76606,-4.02746 6.60164,-8.67585 -2.32021,-3.05934 -7.17505,-1.78678 -10.54822,-2.55924 -3.03827,-0.14952 -6.08016,-0.29307 -9.12292,-0.2063 z"
         style="fill:#333333"
         sodipodi:nodetypes="ccccccccccccccccccccccccc" />
      <path
         inkscape:connector-curvature="0"
         id="path3109"
         d="m 361.55105,629.32651 c -6.47147,1.44659 -10.66374,9.38875 -10.42775,17.17717 -0.92832,18.74903 -0.36102,38.07675 3.429,56.46157 1.78112,4.06091 -2.46874,7.26622 -3.70796,10.54875 -4.8152,8.31985 -8.09966,18.01677 -8.43298,28.26677 0.20546,4.12641 -4.0089,2.62271 -6.23912,2.85953 -14.55791,-0.25464 -28.81841,-5.37945 -43.27293,-6.93788 -3.72686,0.15411 -4.17048,7.41246 -0.49258,8.57969 7.33057,3.32125 15.45051,0.84806 23.03909,2.82195 9.05523,1.63129 18.47252,1.12899 27.28349,3.67506 0.35361,4.84281 1.48064,9.8077 2.23388,14.38825 -15.8802,5.60253 -32.91624,5.97646 -48.70361,12.00314 -2.85761,0.47644 -5.10007,5.93754 -1.77789,7.61711 5.40626,1.09254 10.56133,-2.82352 15.90775,-3.4069 12.53563,-2.87255 25.05325,-6.49081 37.76303,-7.70319 1.50738,1.69888 3.04515,4.98408 2.88684,7.13837 -9.26272,8.43139 -19.99123,14.63699 -28.16849,24.5413 -2.35339,4.17913 2.59584,7.51432 5.09449,4.14537 8.96988,-7.70836 17.70386,-16.44545 27.81621,-21.70556 7.81063,5.21917 14.67728,12.32766 23.05158,16.36258 12.14455,6.44302 25.16728,10.47308 38.02215,13.93427 16.07313,2.57781 32.90452,2.09717 48.2507,-4.13909 8.54467,-3.37274 16.03188,-9.89313 22.56169,-17.18004 2.34082,-2.59425 3.43472,-8.45236 7.52788,-6.68623 17.21468,3.68767 34.45912,11.02894 48.08441,24.73458 2.09501,2.5903 1.74488,7.08135 4.95687,8.62463 2.02787,1.99398 5.52483,2.92595 6.57137,-0.83247 2.01151,-5.93024 -3.4773,-10.64578 -6.81535,-13.84026 -9.77917,-8.91524 -19.98757,-17.54274 -31.97864,-21.11229 -6.27753,-2.78689 -13.67499,-4.0623 -19.54859,-6.67531 1.01768,-2.39458 1.38027,-7.26936 4.5231,-6.25823 14.58576,2.41875 29.02506,6.66049 43.07058,12.19814 3.87931,2.35642 8.35413,5.68674 12.7767,4.40502 3.51744,-1.91893 1.65079,-7.88067 -1.34031,-9.25046 -7.86823,-3.60956 -16.18116,-5.98434 -24.33184,-8.52908 -10.05524,-2.78428 -20.14557,-5.37358 -30.26084,-7.79058 -0.47507,-4.99582 1.24676,-11.79767 6.24001,-11.68435 14.01751,-1.35664 28.16283,-1.18652 42.21168,-0.57488 4.38016,-0.68936 2.46627,-8.85484 -1.28819,-8.98532 -12.15755,-1.91647 -24.48624,0.0322 -36.67729,0.2826 -2.42365,-0.45834 -6.37168,1.55135 -8.02858,-1.27237 -1.03321,-9.60879 -2.24647,-19.40602 -6.31564,-28.01187 -1.0603,-2.02828 -1.6224,-4.14772 0.007,-6.02946 5.87609,-11.46729 11.42083,-23.64932 14.08497,-36.86124 -1.06942,-10.59801 0.26072,-22.96295 -5.44747,-31.98967 -4.56885,-6.0701 -12.22502,-3.44841 -17.87203,-1.93759 -12.07645,4.47601 -24.44649,11.36513 -31.85232,24.12481 -1.64875,2.26715 -1.54825,5.80476 -2.75853,8.07455 -10.8604,0.65672 -21.97723,-2.6888 -32.7381,0.36496 -5.59223,0.93307 -12.08822,3.05531 -17.0764,3.47159 1.37564,-7.53883 -4.00365,-13.8589 -7.16446,-19.78058 -7.64465,-10.93828 -15.90602,-23.50089 -28.04101,-26.59039 -2.17617,-0.59901 -4.40496,-1.21908 -6.63591,-1.03647 z m 0.85219,8.20272 c 7.03436,-0.3682 13.81501,3.42065 18.75393,9.36104 7.91248,8.13977 14.27771,18.46432 18.1381,30.02926 1.45013,1.89181 -2.83236,1.0254 -3.80776,1.668 -2.27709,0.56895 -5.45607,0.79531 -5.87596,-2.78534 -3.06245,-8.63307 -10.23652,-13.6899 -15.92074,-19.43263 -2.61981,-2.33009 -7.44569,-6.30527 -9.79115,-1.72025 -1.58903,6.5739 -0.12252,13.90337 -0.32183,20.75195 -0.10173,6.52874 1.10174,13.29046 0.77127,19.68127 -0.80925,1.86294 -2.08235,3.29914 -3.41867,4.55503 -4.5743,-15.36891 -3.44316,-32.05255 -3.47814,-48.05119 0.27938,-4.74494 0.50311,-12.34151 4.95095,-14.05714 z m 135.58998,9.39349 c 4.80571,0.64299 5.6701,8.04859 6.07364,12.73038 0.68697,7.58427 1.17132,15.34472 -1.8535,22.2559 -2.76436,8.60159 -6.25056,16.84821 -10.95663,24.10266 -2.64989,-2.65019 -2.44425,-5.51127 0.40344,-7.89507 6.15265,-7.92938 5.84723,-19.98131 8.03404,-29.99885 0.75935,-3.04555 0.5614,-7.92369 -2.87188,-8.13567 -11.39752,-0.27739 -22.30111,6.35586 -30.72322,15.00566 -1.33541,1.08193 -1.68955,4.91525 -3.71193,2.502 -2.27982,-0.94049 -3.20204,-3.56326 -1.76816,-5.87603 5.18959,-10.56013 15.2053,-16.26966 24.29819,-20.67096 4.16967,-1.82203 8.60657,-3.42826 13.07601,-4.02002 z m -128.30477,15.70582 c 5.39359,3.53853 10.03564,9.41626 13.67532,15.40154 2.11469,3.41132 -2.15149,5.14057 -4.18204,5.82959 -2.87721,0.82046 -5.0453,3.58632 -7.26414,5.4344 -2.02827,-6.2121 -1.73891,-13.58658 -2.34315,-20.33953 0.003,-2.04506 -0.2856,-4.40175 0.11402,-6.326 z m 121.24693,6.66385 c 1.67947,0.0862 0.22923,3.53243 0.47304,4.6949 -0.77526,8.08084 -2.48967,16.72781 -8.35762,21.52904 -4.17263,-4.0898 -8.39079,-8.45172 -12.47869,-12.41678 2.90372,-6.33492 9.10807,-9.69157 14.50666,-12.2291 1.91864,-0.67044 3.85449,-1.35635 5.85661,-1.57806 z m -64.25429,10.90848 c 14.3311,-0.0516 30.06303,0.39382 41.88824,11.74134 6.04357,5.84904 12.34192,11.98635 16.99891,19.35957 0.61999,2.92348 -0.60104,8.186 3.16268,8.36546 3.98508,0.8773 5.2091,6.92637 6.39928,10.84466 1.01495,5.48702 2.42702,11.63124 1.23443,17.08327 -4.1098,3.29712 -10.82802,0.6795 -13.90309,6.09973 -1.25879,3.17947 1.38814,6.8 4.20321,5.69283 2.76449,0.0556 6.26527,-1.64257 8.59878,-0.72976 -0.7576,2.83235 -0.50792,8.13825 -4.06151,6.49139 -3.39838,0.53178 -8.15053,-2.07132 -10.86835,1.25927 -1.86242,4.12349 2.09843,7.73261 5.31596,7.70891 1.27882,0.6191 4.59888,-0.22849 4.73242,1.90063 -0.47733,3.92493 -3.53353,6.35471 -6.70209,5.01997 -2.65954,-1.25314 -7.83279,-1.63192 -7.52066,3.30653 0.54657,4.09719 5.21195,4.13123 7.06787,5.70908 -10.18938,13.29777 -25.36602,20.42465 -40.43668,21.15978 -15.43522,1.49009 -31.07647,-0.14563 -45.92075,-6.11403 -12.10238,-3.54101 -23.89074,-9.68547 -33.87391,-18.74095 -2.05776,-2.14445 2.26065,-2.43573 3.06063,-3.61515 2.99229,-2.50366 6.91612,-4.2468 8.88542,-8.10901 -0.13621,-4.1244 -4.62108,-3.01314 -6.47365,-1.43278 -3.64161,2.18 -7.37259,5.72679 -11.61106,5.41229 -1.2031,-0.98056 -3.20074,-4.76319 -0.82468,-5.384 4.48035,-2.22038 10.91705,-1.98542 13.63839,-7.52202 0.71712,-3.78539 -3.48866,-4.48531 -5.45813,-2.88883 -3.86665,1.4997 -8.1648,3.44958 -12.24936,2.8157 -2.01554,-3.93333 -3.08464,-9.46115 -2.20422,-13.73307 3.19162,-1.89774 6.30505,1.56318 9.4376,0.54485 2.5778,-1.50686 1.32957,-6.03727 -1.38497,-6.25802 -2.69015,-1.21548 -6.10318,0.57054 -8.50568,-1.19502 -1.24101,-8.08411 1.61419,-16.11997 4.28911,-23.36249 3.73314,-7.58612 8.97945,-14.30536 14.67229,-19.62718 6.64248,-4.46963 11.40179,-13.39419 19.60289,-14.23467 4.27434,-0.43501 8.21414,-4.83348 12.47558,-2.2425 5.53373,0.81231 10.81427,-2.39983 16.42551,-1.69646 3.0069,0.31348 6.06292,-0.50829 8.0008,-3.32405 0.57037,-0.17697 1.2791,-0.27032 1.90879,-0.30527 z"
         style="fill:#333333"
         sodipodi:nodetypes="ccccccccccccccccccccccccccccccccccccccccccccccccccccccccccccccccccccccccccccccccccccccccccccccccccccccccccccccccccccccccccccccc" />
    </g>
    <rect
       style="color:#000000;fill:#000000;fill-opacity:1;stroke:none;stroke-width:2;marker:none;visibility:visible;display:inline;overflow:visible;enable-background:accumulate"
       id="rect3123"
       width="231.99998"
       height="402.91772"
       x="1018.1993"
       y="138.86134"
       inkscape:export-filename="/home/www/mpcat.org/static/mpcat.org-vertical-white.png"
       inkscape:export-xdpi="46.549999"
       inkscape:export-ydpi="46.549999" />
    <path
       sodipodi:type="star"
       style="color:#000000;fill:#333333;fill-opacity:1;stroke:none;stroke-width:2;marker:none;visibility:visible;display:inline;overflow:visible;enable-background:accumulate"
       id="path3091"
       sodipodi:sides="32"
       sodipodi:cx="-1983.9396"
       sodipodi:cy="-541.65851"
       sodipodi:r1="497.93451"
       sodipodi:r2="461.5853"
       sodipodi:arg1="0.52359878"
       sodipodi:arg2="0.62177355"
       inkscape:flatsided="false"
       inkscape:rounded="1.35"
       inkscape:randomized="0.07"
       d="m -1521.2135,-284.90359 c -40.7131,71.89381 -21.9737,-29.56851 -67.2914,34.84149 -45.3176,64.41 22.1664,-56.7165 -31.2106,3.24854 -53.377,59.96504 -18.0035,10.03259 -71.9073,67.79229 -53.9039,57.75969 103.6242,-23.67104 40.3293,28.61273 -63.2949,52.283765 -4.4989,-63.21067 -76.7371,-22.37627 -72.2381,40.8344 67.1662,56.98516 -3.0637,91.982579 -70.2298,34.997416 -45.8106,-45.980849 -124.6818,-24.673919 -78.8711,21.306926 99.9713,34.494942 21.81,61.847193 -78.1613,27.352251 11.9576,-62.113893 -67.5134,-40.762944 -79.4709,21.350945 34.0536,36.207271 -46.888,33.28408 -80.9416,-2.923191 47.0081,-6.015554 -35.8367,-2.428271 -82.8449,3.587283 16.7104,-22.971323 -63.7766,-27.479269 -80.4869,-4.507947 36.2332,30.8736 -42.5356,20.04765 -78.7688,-10.82595 40.9928,48.032309 -35.4445,19.576299 -76.4373,-28.456009 -12.1588,-50.947692 -82.2119,-88.825288 -70.053,-37.8776 40.2845,30.809786 -30.107,-12.19922 -70.3914,-43.009 76.6341,-7.18325 11.7042,-52.18063 -64.93,-44.99739 -27.924,101.89331 -91.261,55.32259 -63.3371,-46.57071 72.548,-19.93964 21.1085,-84.32884 -51.4396,-64.3892 -8.5563,77.93038 -59.8024,16.70773 -51.2461,-61.22264 3.7121,10.03054 -38.1214,-61.67886 -41.8335,-71.70939 7.7893,-17.60556 -34.8769,-84.8216 -42.6661,-67.21604 65.1199,50.7364 33.486,-24.04375 -31.6338,-74.78016 -18.6065,42.61008 -35.9122,-34.25307 -17.3057,-76.86314 39.1714,19.81704 21.1906,-55.61808 -17.9807,-75.43511 -34.5013,8.63108 -38.8003,-70.70586 -4.2991,-79.33694 2.6869,58.77028 11.2854,-19.08162 8.5985,-77.85189 -70.4757,0.6096 -65.9392,-77.85903 4.5364,-78.46864 36.3203,49.97821 53.6075,-28.45565 17.2873,-78.43386 -24.0553,72.39138 3.7912,-4.91222 27.8464,-77.3036 6.4483,-19.42873 39.7234,-95.16371 33.2751,-75.73498 -41.4698,25.15276 -8.7053,-48.68209 32.7645,-73.83485 23.5286,96.83441 67.2196,28.84714 43.6911,-67.98726 -86.6948,-9.99709 -38.5002,-72.95936 48.1946,-62.96228 3.0669,-5.38849 67.0014,-56.90172 63.9344,-51.51323 -4.8094,13.76495 61.9129,-34.03268 66.7222,-47.79763 -59.9293,68.30082 7.0263,22.37627 66.9555,-45.92455 -27.1668,-14.37169 44.0011,-54.38668 71.168,-40.01496 -20.3314,26.95958 51.2129,-7.50203 71.5443,-34.46163 0.876,-33.14023 75.597,-58.07313 74.7209,-24.9329 -72.0225,60.4854 6.3948,56.02616 78.4173,-4.45925 1.2154,-39.57436 80.3105,-52.32136 79.0951,-12.747 -40.1485,20.1697 36.9846,29.0726 77.1332,8.9029 -12.2484,-48.394 66.3867,-36.6999 78.6351,11.694 -71.8579,67.55328 4.2083,87.30971 76.0662,19.75642 0.3718,-52.83741 74.9209,-22.85984 74.5491,29.97757 -33.9489,-10.35172 40.1254,16.86636 74.0742,27.21807 -1.4833,-20.48227 67.2863,17.61916 68.7697,38.10144 -74.2698,-2.75001 -6.7981,41.29007 67.4717,44.04008 -6.3553,-37.64322 49.1756,19.85886 55.5309,57.50207 -40.1942,-6.34426 17.2188,46.68227 57.4131,53.02652 4.9501,-39.20118 58.6533,18.64007 53.7032,57.84124 -76.0023,-7.21452 -26.6823,58.507 49.32,65.72152 69.0878,-80.24211 100.8308,-9.34646 31.743,70.89565 -50.8561,13.28527 -16.1919,85.04614 34.6642,71.76086 1.3649,-41.61647 13.7098,38.41465 12.345,80.03111 -23.5024,-30.25859 -16.2834,52.44623 7.2189,82.70481 30.5558,-73.3992 41.4104,6.52666 10.8547,79.92587 -1.7265,7.56534 -11.2854,88.79245 -9.5588,81.22711 1.6532,-62.18203 -3.7705,15.86693 -5.4236,78.04895 -42.1672,-58.46578 -56.2176,22.924 -14.0505,81.38978 87.8529,-3.07745 68.5287,72.43597 -19.3242,75.51343 -9.8037,-7.79639 -43.4816,62.98777 -33.6779,70.78415 54.3962,-28.0801 13.6831,43.81371 z"
       transform="matrix(0.21278291,0,0,0.21278291,1558.7469,474.0022)"
       inkscape:export-filename="/home/www/mpcat.org/static/mpcat.org-white.png"
       inkscape:export-xdpi="45.242687"
       inkscape:export-ydpi="45.242687" />
    <g
       transform="matrix(0.86181182,0,0,0.86181182,768.3901,-279.36306)"
       id="g3111"
       style="fill:#ffffff"
       inkscape:export-filename="/home/www/mpcat.org/static/mpcat.org-white.png"
       inkscape:export-xdpi="45.242687"
       inkscape:export-ydpi="45.242687">
      <path
         sodipodi:nodetypes="ccccccccccccccccccccccccc"
         style="fill:#ffffff"
         d="m 390.53443,712.31784 c -5.17584,1.70341 -5.29118,8.46956 -5.88796,13.02491 -0.46827,5.12419 1.03612,13.15022 7.44915,13.35937 5.50271,-0.80447 8.40145,-7.42236 8.05131,-12.48958 -1.06889,-4.90706 -2.75293,-10.73361 -7.2038,-13.53787 -0.74866,-0.32692 -1.59245,-0.44498 -2.4087,-0.35683 z m 66.57415,0.28995 c -5.40129,1.62618 -7.82522,7.81451 -9.23348,12.80184 -1.12328,5.14849 1.0365,12.02745 6.3787,13.76095 7.37165,-0.37949 10.62017,-8.82913 10.72765,-15.25522 0.35114,-4.70598 -2.31194,-11.46982 -7.87287,-11.30757 z m -38.38331,35.75149 c -2.77791,-0.80933 -6.05112,1.11168 -4.95125,4.21524 0.79078,5.57741 6.18058,9.71147 6.13333,15.41125 -0.97597,4.73443 -6.05895,7.49593 -10.57163,5.86581 -4.38173,-0.3915 -3.4592,6.10065 -0.60214,7.5829 4.26345,2.81086 9.45591,0.32902 13.31485,-1.71727 0.76501,3.55122 3.75752,6.82319 7.76141,5.99946 4.56114,-0.66989 10.75839,0.2152 13.82779,-3.92536 1.78186,-3.47994 -2.46332,-6.18165 -5.64267,-5.66485 -2.93228,-0.37149 -6.68059,1.0271 -9.18879,-0.22317 -1.26972,-5.53531 -1.49354,-11.88013 2.9886,-16.10262 2.67826,-2.24222 8.76606,-4.02746 6.60164,-8.67585 -2.32021,-3.05934 -7.17505,-1.78678 -10.54822,-2.55924 -3.03827,-0.14952 -6.08016,-0.29307 -9.12292,-0.2063 z"
         id="path3113"
         inkscape:connector-curvature="0" />
      <path
         sodipodi:nodetypes="ccccccccccccccccccccccccccccccccccccccccccccccccccccccccccccccccccccccccccccccccccccccccccccccccccccccccccccccccccccccccccccccc"
         style="fill:#ffffff"
         d="m 361.55105,629.32651 c -6.47147,1.44659 -10.66374,9.38875 -10.42775,17.17717 -0.92832,18.74903 -0.36102,38.07675 3.429,56.46157 1.78112,4.06091 -2.46874,7.26622 -3.70796,10.54875 -4.8152,8.31985 -8.09966,18.01677 -8.43298,28.26677 0.20546,4.12641 -4.0089,2.62271 -6.23912,2.85953 -14.55791,-0.25464 -28.81841,-5.37945 -43.27293,-6.93788 -3.72686,0.15411 -4.17048,7.41246 -0.49258,8.57969 7.33057,3.32125 15.45051,0.84806 23.03909,2.82195 9.05523,1.63129 18.47252,1.12899 27.28349,3.67506 0.35361,4.84281 1.48064,9.8077 2.23388,14.38825 -15.8802,5.60253 -32.91624,5.97646 -48.70361,12.00314 -2.85761,0.47644 -5.10007,5.93754 -1.77789,7.61711 5.40626,1.09254 10.56133,-2.82352 15.90775,-3.4069 12.53563,-2.87255 25.05325,-6.49081 37.76303,-7.70319 1.50738,1.69888 3.04515,4.98408 2.88684,7.13837 -9.26272,8.43139 -19.99123,14.63699 -28.16849,24.5413 -2.35339,4.17913 2.59584,7.51432 5.09449,4.14537 8.96988,-7.70836 17.70386,-16.44545 27.81621,-21.70556 7.81063,5.21917 14.67728,12.32766 23.05158,16.36258 12.14455,6.44302 25.16728,10.47308 38.02215,13.93427 16.07313,2.57781 32.90452,2.09717 48.2507,-4.13909 8.54467,-3.37274 16.03188,-9.89313 22.56169,-17.18004 2.34082,-2.59425 3.43472,-8.45236 7.52788,-6.68623 17.21468,3.68767 34.45912,11.02894 48.08441,24.73458 2.09501,2.5903 1.74488,7.08135 4.95687,8.62463 2.02787,1.99398 5.52483,2.92595 6.57137,-0.83247 2.01151,-5.93024 -3.4773,-10.64578 -6.81535,-13.84026 -9.77917,-8.91524 -19.98757,-17.54274 -31.97864,-21.11229 -6.27753,-2.78689 -13.67499,-4.0623 -19.54859,-6.67531 1.01768,-2.39458 1.38027,-7.26936 4.5231,-6.25823 14.58576,2.41875 29.02506,6.66049 43.07058,12.19814 3.87931,2.35642 8.35413,5.68674 12.7767,4.40502 3.51744,-1.91893 1.65079,-7.88067 -1.34031,-9.25046 -7.86823,-3.60956 -16.18116,-5.98434 -24.33184,-8.52908 -10.05524,-2.78428 -20.14557,-5.37358 -30.26084,-7.79058 -0.47507,-4.99582 1.24676,-11.79767 6.24001,-11.68435 14.01751,-1.35664 28.16283,-1.18652 42.21168,-0.57488 4.38016,-0.68936 2.46627,-8.85484 -1.28819,-8.98532 -12.15755,-1.91647 -24.48624,0.0322 -36.67729,0.2826 -2.42365,-0.45834 -6.37168,1.55135 -8.02858,-1.27237 -1.03321,-9.60879 -2.24647,-19.40602 -6.31564,-28.01187 -1.0603,-2.02828 -1.6224,-4.14772 0.007,-6.02946 5.87609,-11.46729 11.42083,-23.64932 14.08497,-36.86124 -1.06942,-10.59801 0.26072,-22.96295 -5.44747,-31.98967 -4.56885,-6.0701 -12.22502,-3.44841 -17.87203,-1.93759 -12.07645,4.47601 -24.44649,11.36513 -31.85232,24.12481 -1.64875,2.26715 -1.54825,5.80476 -2.75853,8.07455 -10.8604,0.65672 -21.97723,-2.6888 -32.7381,0.36496 -5.59223,0.93307 -12.08822,3.05531 -17.0764,3.47159 1.37564,-7.53883 -4.00365,-13.8589 -7.16446,-19.78058 -7.64465,-10.93828 -15.90602,-23.50089 -28.04101,-26.59039 -2.17617,-0.59901 -4.40496,-1.21908 -6.63591,-1.03647 z m 0.85219,8.20272 c 7.03436,-0.3682 13.81501,3.42065 18.75393,9.36104 7.91248,8.13977 14.27771,18.46432 18.1381,30.02926 1.45013,1.89181 -2.83236,1.0254 -3.80776,1.668 -2.27709,0.56895 -5.45607,0.79531 -5.87596,-2.78534 -3.06245,-8.63307 -10.23652,-13.6899 -15.92074,-19.43263 -2.61981,-2.33009 -7.44569,-6.30527 -9.79115,-1.72025 -1.58903,6.5739 -0.12252,13.90337 -0.32183,20.75195 -0.10173,6.52874 1.10174,13.29046 0.77127,19.68127 -0.80925,1.86294 -2.08235,3.29914 -3.41867,4.55503 -4.5743,-15.36891 -3.44316,-32.05255 -3.47814,-48.05119 0.27938,-4.74494 0.50311,-12.34151 4.95095,-14.05714 z m 135.58998,9.39349 c 4.80571,0.64299 5.6701,8.04859 6.07364,12.73038 0.68697,7.58427 1.17132,15.34472 -1.8535,22.2559 -2.76436,8.60159 -6.25056,16.84821 -10.95663,24.10266 -2.64989,-2.65019 -2.44425,-5.51127 0.40344,-7.89507 6.15265,-7.92938 5.84723,-19.98131 8.03404,-29.99885 0.75935,-3.04555 0.5614,-7.92369 -2.87188,-8.13567 -11.39752,-0.27739 -22.30111,6.35586 -30.72322,15.00566 -1.33541,1.08193 -1.68955,4.91525 -3.71193,2.502 -2.27982,-0.94049 -3.20204,-3.56326 -1.76816,-5.87603 5.18959,-10.56013 15.2053,-16.26966 24.29819,-20.67096 4.16967,-1.82203 8.60657,-3.42826 13.07601,-4.02002 z m -128.30477,15.70582 c 5.39359,3.53853 10.03564,9.41626 13.67532,15.40154 2.11469,3.41132 -2.15149,5.14057 -4.18204,5.82959 -2.87721,0.82046 -5.0453,3.58632 -7.26414,5.4344 -2.02827,-6.2121 -1.73891,-13.58658 -2.34315,-20.33953 0.003,-2.04506 -0.2856,-4.40175 0.11402,-6.326 z m 121.24693,6.66385 c 1.67947,0.0862 0.22923,3.53243 0.47304,4.6949 -0.77526,8.08084 -2.48967,16.72781 -8.35762,21.52904 -4.17263,-4.0898 -8.39079,-8.45172 -12.47869,-12.41678 2.90372,-6.33492 9.10807,-9.69157 14.50666,-12.2291 1.91864,-0.67044 3.85449,-1.35635 5.85661,-1.57806 z m -64.25429,10.90848 c 14.3311,-0.0516 30.06303,0.39382 41.88824,11.74134 6.04357,5.84904 12.34192,11.98635 16.99891,19.35957 0.61999,2.92348 -0.60104,8.186 3.16268,8.36546 3.98508,0.8773 5.2091,6.92637 6.39928,10.84466 1.01495,5.48702 2.42702,11.63124 1.23443,17.08327 -4.1098,3.29712 -10.82802,0.6795 -13.90309,6.09973 -1.25879,3.17947 1.38814,6.8 4.20321,5.69283 2.76449,0.0556 6.26527,-1.64257 8.59878,-0.72976 -0.7576,2.83235 -0.50792,8.13825 -4.06151,6.49139 -3.39838,0.53178 -8.15053,-2.07132 -10.86835,1.25927 -1.86242,4.12349 2.09843,7.73261 5.31596,7.70891 1.27882,0.6191 4.59888,-0.22849 4.73242,1.90063 -0.47733,3.92493 -3.53353,6.35471 -6.70209,5.01997 -2.65954,-1.25314 -7.83279,-1.63192 -7.52066,3.30653 0.54657,4.09719 5.21195,4.13123 7.06787,5.70908 -10.18938,13.29777 -25.36602,20.42465 -40.43668,21.15978 -15.43522,1.49009 -31.07647,-0.14563 -45.92075,-6.11403 -12.10238,-3.54101 -23.89074,-9.68547 -33.87391,-18.74095 -2.05776,-2.14445 2.26065,-2.43573 3.06063,-3.61515 2.99229,-2.50366 6.91612,-4.2468 8.88542,-8.10901 -0.13621,-4.1244 -4.62108,-3.01314 -6.47365,-1.43278 -3.64161,2.18 -7.37259,5.72679 -11.61106,5.41229 -1.2031,-0.98056 -3.20074,-4.76319 -0.82468,-5.384 4.48035,-2.22038 10.91705,-1.98542 13.63839,-7.52202 0.71712,-3.78539 -3.48866,-4.48531 -5.45813,-2.88883 -3.86665,1.4997 -8.1648,3.44958 -12.24936,2.8157 -2.01554,-3.93333 -3.08464,-9.46115 -2.20422,-13.73307 3.19162,-1.89774 6.30505,1.56318 9.4376,0.54485 2.5778,-1.50686 1.32957,-6.03727 -1.38497,-6.25802 -2.69015,-1.21548 -6.10318,0.57054 -8.50568,-1.19502 -1.24101,-8.08411 1.61419,-16.11997 4.28911,-23.36249 3.73314,-7.58612 8.97945,-14.30536 14.67229,-19.62718 6.64248,-4.46963 11.40179,-13.39419 19.60289,-14.23467 4.27434,-0.43501 8.21414,-4.83348 12.47558,-2.2425 5.53373,0.81231 10.81427,-2.39983 16.42551,-1.69646 3.0069,0.31348 6.06292,-0.50829 8.0008,-3.32405 0.57037,-0.17697 1.2791,-0.27032 1.90879,-0.30527 z"
         id="path3115"
         inkscape:connector-curvature="0" />
    </g>
    <text
       xml:space="preserve"
       style="font-size:186.03936768px;font-style:normal;font-variant:normal;font-weight:bold;font-stretch:normal;text-align:center;line-height:125%;letter-spacing:0px;word-spacing:0px;writing-mode:lr-tb;text-anchor:middle;fill:#ffffff;fill-opacity:1;stroke:none;filter:url(#filter4580);font-family:Bitstream Vera Sans;-inkscape-font-specification:Sans Bold"
       x="130.75237"
       y="608.33679"
       id="text3093"
       sodipodi:linespacing="125%"
       transform="matrix(0.75785708,0,0,0.57681455,1039.661,-104.49896)"
       inkscape:export-filename="/home/www/mpcat.org/static/mpcat.org-white.png"
       inkscape:export-xdpi="45.242687"
       inkscape:export-ydpi="45.242687"><tspan
         sodipodi:role="line"
         id="tspan3095"
         x="130.75237"
         y="608.33679"
         style="font-style:normal;font-variant:normal;font-weight:normal;font-stretch:normal;fill:#ffffff;font-family:Purisa;-inkscape-font-specification:Purisa">MP</tspan></text>
    <g
       inkscape:export-ydpi="45.242687"
       inkscape:export-xdpi="45.242687"
       inkscape:export-filename="/home/www/mpcat.org/static/mpcat.org-white.png"
       transform="matrix(0,-1,1,0,664.02205,1090.2623)"
       id="g3097">
      <path
         inkscape:export-ydpi="45.242687"
         inkscape:export-xdpi="45.242687"
         inkscape:export-filename="/home/www/mpcat.org/static/mpcat.org-white.png"
         inkscape:connector-curvature="0"
         id="path3099"
         d="m 580.36254,399.04903 c -9.37321,1.01766 -19.89163,5.51305 -23.62955,14.71929 -0.93594,4.77411 -0.64995,10.27059 1.64319,14.58043 1.3729,1.87382 2.32275,4.57841 4.72442,5.89706 11.07863,7.75548 25.67095,11.23907 39.06316,8.56765 7.22538,-1.33852 14.66217,-8.01609 12.52065,-15.92275 -0.90374,-1.57257 -1.77542,-2.91316 -2.03663,-4.74443 -1.33243,-2.50831 -3.7391,-4.16821 -4.07326,-7.10507 -4.4294,-10.9685 -16.93519,-16.41224 -28.21198,-15.99218 z m 0.3703,10.11372 c 9.05664,0.27572 19.62067,4.10767 21.63921,14.00184 0.227,2.55475 2.35693,6.34536 0.27772,8.42425 -3.52093,2.11471 -7.68984,4.84187 -11.91892,2.75409 -6.63121,-2.15125 -14.2634,-1.81229 -19.61798,-6.92253 -3.93612,-2.1439 -7.20064,-7.45465 -4.17358,-11.6386 3.27505,-3.95067 8.8775,-5.82231 13.79355,-6.61905 z"
         style="font-size:94.36105347px;font-style:normal;font-variant:normal;font-weight:bold;font-stretch:normal;text-align:center;line-height:125%;letter-spacing:0px;word-spacing:0px;writing-mode:lr-tb;text-anchor:middle;fill:#ffffff;fill-opacity:1;stroke:none;filter:url(#filter4616);font-family:Purisa;-inkscape-font-specification:Purisa Bold" />
      <path
         inkscape:export-ydpi="45.242687"
         inkscape:export-xdpi="45.242687"
         inkscape:export-filename="/home/www/mpcat.org/static/mpcat.org-white.png"
         inkscape:connector-curvature="0"
         id="path3101"
         d="m 603.36722,448.15962 c -2.94954,0.0832 -4.26087,3.60406 -3.88811,5.78588 -4.78823,0.58976 -9.60638,0.86385 -14.41843,1.18032 -0.83994,-3.92456 -6.49378,-5.92219 -8.88712,-2.10605 -1.40961,3.89495 -6.84096,2.43496 -10.06744,2.86979 -4.67698,-1.04709 -13.02495,2.79873 -8.42425,8.21596 3.98818,2.9281 9.62943,0.37816 14.16385,1.04146 -2.27188,7.91037 -7.59371,14.65004 -9.78972,22.51867 -0.62887,4.29664 5.42112,5.33242 7.68366,2.40692 3.90709,-2.97126 5.47936,-7.80866 7.84566,-11.89578 1.22452,-2.80813 2.16684,-5.73031 3.14752,-8.63254 2.60322,5.04274 5.1171,10.40631 9.99801,13.56212 4.6536,4.33362 12.8054,8.32122 18.4454,3.61039 4.53885,-4.89735 3.10689,-12.46899 4.53613,-18.51483 -0.10898,-4.68959 2.95354,-10.96351 -1.42116,-14.48289 -2.50499,-2.15363 -5.25491,-5.59099 -8.924,-5.55942 z m 0.32402,18.12139 c -0.0731,4.53313 -0.92029,9.109 -2.22179,13.28439 -5.62828,-2.27776 -10.27206,-6.57743 -12.38179,-12.42808 -2.49535,-3.4951 3.97663,-1.68332 6.15061,-2.48895 2.84123,-0.25314 5.66231,-0.48399 8.45297,-0.95943 0,0.86403 0,1.72804 0,2.59207 z"
         style="font-size:94.36105347px;font-style:normal;font-variant:normal;font-weight:bold;font-stretch:normal;text-align:center;line-height:125%;letter-spacing:0px;word-spacing:0px;writing-mode:lr-tb;text-anchor:middle;fill:#ffffff;fill-opacity:1;stroke:none;filter:url(#filter4604);font-family:Purisa;-inkscape-font-specification:Purisa Bold" />
      <path
         inkscape:export-ydpi="45.242687"
         inkscape:export-xdpi="45.242687"
         inkscape:export-filename="/home/www/mpcat.org/static/mpcat.org-white.png"
         inkscape:connector-curvature="0"
         id="path3103"
         d="m 574.25265,498.14967 c -6.28218,0.49015 -14.41198,2.14597 -15.99219,9.34998 -2.63866,9.45212 4.08653,18.565 11.17833,24.04615 -3.99562,0.16984 -11.02547,-0.80665 -11.91892,4.55927 -0.64932,4.1194 3.76232,6.13553 7.26707,5.5776 8.31562,-0.37008 17.50162,0.25818 24.92559,-3.98069 3.91855,-3.6148 3.7541,-9.63567 4.28156,-14.58043 0.11587,-3.05102 -2.07284,-5.27445 -2.89294,-8.0771 -2.25592,-4.30672 -8.76232,-2.0771 -9.23427,2.3375 -1.12258,3.19114 -0.77281,7.21912 0.43973,9.92858 -7.43405,-1.7501 -15.95946,-8.3391 -14.48787,-17.03365 1.57954,-3.18832 6.40434,-1.60681 9.28057,-2.19863 8.53792,-0.83049 15.75933,5.0925 21.68549,10.43773 3.5604,3.53534 7.00681,8.68176 7.38279,13.46954 -3.8836,0.65359 -3.73342,6.05089 -0.324,7.22079 3.07517,2.38713 7.63537,1.04654 8.79454,-2.63836 2.03667,-3.87553 2.18601,-9.20495 -1.24975,-12.26608 -4.18703,-11.3487 -13.85212,-20.12892 -24.99503,-24.30072 -4.5994,-1.24468 -9.36722,-1.88976 -14.1407,-1.85148 z"
         style="font-size:94.36105347px;font-style:normal;font-variant:normal;font-weight:bold;font-stretch:normal;text-align:center;line-height:125%;letter-spacing:0px;word-spacing:0px;writing-mode:lr-tb;text-anchor:middle;fill:#ffffff;fill-opacity:1;stroke:none;filter:url(#filter4592);font-family:Purisa;-inkscape-font-specification:Purisa Bold" />
    </g>
  </g>
</svg>
