<?xml version="1.0" encoding="UTF-8" standalone="no"?>
<!-- Created with Inkscape (http://www.inkscape.org/) -->

<svg
   xmlns:dc="http://purl.org/dc/elements/1.1/"
   xmlns:cc="http://creativecommons.org/ns#"
   xmlns:rdf="http://www.w3.org/1999/02/22-rdf-syntax-ns#"
   xmlns:svg="http://www.w3.org/2000/svg"
   xmlns="http://www.w3.org/2000/svg"
   xmlns:sodipodi="http://sodipodi.sourceforge.net/DTD/sodipodi-0.dtd"
   xmlns:inkscape="http://www.inkscape.org/namespaces/inkscape"
   width="597.88702"
   height="238.71262"
   id="svg3155"
   version="1.1"
   inkscape:version="0.48.4 r9939"
   sodipodi:docname="New document 8">
  <defs
     id="defs3157" />
  <sodipodi:namedview
     id="base"
     pagecolor="#ffffff"
     bordercolor="#666666"
     borderopacity="1.0"
     inkscape:pageopacity="0.0"
     inkscape:pageshadow="2"
     inkscape:zoom="0.35"
     inkscape:cx="356.80067"
     inkscape:cy="59.356304"
     inkscape:document-units="px"
     inkscape:current-layer="layer1"
     showgrid="false"
     fit-margin-top="0"
     fit-margin-left="0"
     fit-margin-right="0"
     fit-margin-bottom="0"
     inkscape:window-width="1551"
     inkscape:window-height="876"
     inkscape:window-x="49"
     inkscape:window-y="0"
     inkscape:window-maximized="1" />
  <metadata
     id="metadata3160">
    <rdf:RDF>
      <cc:Work
         rdf:about="">
        <dc:format>image/svg+xml</dc:format>
        <dc:type
           rdf:resource="http://purl.org/dc/dcmitype/StillImage" />
        <dc:title></dc:title>
      </cc:Work>
    </rdf:RDF>
  </metadata>
  <g
     inkscape:label="Layer 1"
     inkscape:groupmode="layer"
     id="layer1"
     transform="translate(-18.199329,-353.00587)">
    <path
       sodipodi:type="star"
       style="color:#000000;fill:#fff3a9;fill-opacity:1;stroke:none;stroke-width:2;marker:none;visibility:visible;display:inline;overflow:visible;enable-background:accumulate"
       id="path3412"
       sodipodi:sides="32"
       sodipodi:cx="-1983.9396"
       sodipodi:cy="-541.65851"
       sodipodi:r1="497.93451"
       sodipodi:r2="461.5853"
       sodipodi:arg1="0.52359878"
       sodipodi:arg2="0.62177355"
       inkscape:flatsided="false"
       inkscape:rounded="1.35"
       inkscape:randomized="0.07"
       d="m -1521.2135,-284.90359 c -40.7131,71.89381 -21.9737,-29.56851 -67.2914,34.84149 -45.3176,64.41 22.1664,-56.7165 -31.2106,3.24854 -53.377,59.96504 -18.0035,10.03259 -71.9073,67.79229 -53.9039,57.75969 103.6242,-23.67104 40.3293,28.61273 -63.2949,52.283765 -4.4989,-63.21067 -76.7371,-22.37627 -72.2381,40.8344 67.1662,56.98516 -3.0637,91.982579 -70.2298,34.997416 -45.8106,-45.980849 -124.6818,-24.673919 -78.8711,21.306926 99.9713,34.494942 21.81,61.847193 -78.1613,27.352251 11.9576,-62.113893 -67.5134,-40.762944 -79.4709,21.350945 34.0536,36.207271 -46.888,33.28408 -80.9416,-2.923191 47.0081,-6.015554 -35.8367,-2.428271 -82.8449,3.587283 16.7104,-22.971323 -63.7766,-27.479269 -80.4869,-4.507947 36.2332,30.8736 -42.5356,20.04765 -78.7688,-10.82595 40.9928,48.032309 -35.4445,19.576299 -76.4373,-28.456009 -12.1588,-50.947692 -82.2119,-88.825288 -70.053,-37.8776 40.2845,30.809786 -30.107,-12.19922 -70.3914,-43.009 76.6341,-7.18325 11.7042,-52.18063 -64.93,-44.99739 -27.924,101.89331 -91.261,55.32259 -63.3371,-46.57071 72.548,-19.93964 21.1085,-84.32884 -51.4396,-64.3892 -8.5563,77.93038 -59.8024,16.70773 -51.2461,-61.22264 3.7121,10.03054 -38.1214,-61.67886 -41.8335,-71.70939 7.7893,-17.60556 -34.8769,-84.8216 -42.6661,-67.21604 65.1199,50.7364 33.486,-24.04375 -31.6338,-74.78016 -18.6065,42.61008 -35.9122,-34.25307 -17.3057,-76.86314 39.1714,19.81704 21.1906,-55.61808 -17.9807,-75.43511 -34.5013,8.63108 -38.8003,-70.70586 -4.2991,-79.33694 2.6869,58.77028 11.2854,-19.08162 8.5985,-77.85189 -70.4757,0.6096 -65.9392,-77.85903 4.5364,-78.46864 36.3203,49.97821 53.6075,-28.45565 17.2873,-78.43386 -24.0553,72.39138 3.7912,-4.91222 27.8464,-77.3036 6.4483,-19.42873 39.7234,-95.16371 33.2751,-75.73498 -41.4698,25.15276 -8.7053,-48.68209 32.7645,-73.83485 23.5286,96.83441 67.2196,28.84714 43.6911,-67.98726 -86.6948,-9.99709 -38.5002,-72.95936 48.1946,-62.96228 3.0669,-5.38849 67.0014,-56.90172 63.9344,-51.51323 -4.8094,13.76495 61.9129,-34.03268 66.7222,-47.79763 -59.9293,68.30082 7.0263,22.37627 66.9555,-45.92455 -27.1668,-14.37169 44.0011,-54.38668 71.168,-40.01496 -20.3314,26.95958 51.2129,-7.50203 71.5443,-34.46163 0.876,-33.14023 75.597,-58.07313 74.7209,-24.9329 -72.0225,60.4854 6.3948,56.02616 78.4173,-4.45925 1.2154,-39.57436 80.3105,-52.32136 79.0951,-12.747 -40.1485,20.1697 36.9846,29.0726 77.1332,8.9029 -12.2484,-48.394 66.3867,-36.6999 78.6351,11.694 -71.8579,67.55328 4.2083,87.30971 76.0662,19.75642 0.3718,-52.83741 74.9209,-22.85984 74.5491,29.97757 -33.9489,-10.35172 40.1254,16.86636 74.0742,27.21807 -1.4833,-20.48227 67.2863,17.61916 68.7697,38.10144 -74.2698,-2.75001 -6.7981,41.29007 67.4717,44.04008 -6.3553,-37.64322 49.1756,19.85886 55.5309,57.50207 -40.1942,-6.34426 17.2188,46.68227 57.4131,53.02652 4.9501,-39.20118 58.6533,18.64007 53.7032,57.84124 -76.0023,-7.21452 -26.6823,58.507 49.32,65.72152 69.0878,-80.24211 100.8308,-9.34646 31.743,70.89565 -50.8561,13.28527 -16.1919,85.04614 34.6642,71.76086 1.3649,-41.61647 13.7098,38.41465 12.345,80.03111 -23.5024,-30.25859 -16.2834,52.44623 7.2189,82.70481 30.5558,-73.3992 41.4104,6.52666 10.8547,79.92587 -1.7265,7.56534 -11.2854,88.79245 -9.5588,81.22711 1.6532,-62.18203 -3.7705,15.86693 -5.4236,78.04895 -42.1672,-58.46578 -56.2176,22.924 -14.0505,81.38978 87.8529,-3.07745 68.5287,72.43597 -19.3242,75.51343 -9.8037,-7.79639 -43.4816,62.98777 -33.6779,70.78415 54.3962,-28.0801 13.6831,43.81371 z"
       transform="matrix(0.23477599,0,0,0.23477599,880.9533,599.59265)"
       inkscape:export-filename="/tmp/mpcat.org.png"
       inkscape:export-xdpi="30.161787"
       inkscape:export-ydpi="30.161787" />
    <text
       xml:space="preserve"
       style="font-size:186.03936768px;font-style:normal;font-variant:normal;font-weight:bold;font-stretch:normal;text-align:center;line-height:125%;letter-spacing:0px;word-spacing:0px;writing-mode:lr-tb;text-anchor:middle;fill:#333333;fill-opacity:1;stroke:none;font-family:Bitstream Vera Sans;-inkscape-font-specification:Sans Bold"
       x="130.75237"
       y="608.33679"
       id="text3389"
       sodipodi:linespacing="125%"
       transform="scale(1.14624,0.87241764)"
       inkscape:export-filename="/tmp/mpcat.org.png"
       inkscape:export-xdpi="30.161787"
       inkscape:export-ydpi="30.161787"><tspan
         sodipodi:role="line"
         id="tspan3391"
         x="130.75237"
         y="608.33679"
         style="font-style:normal;font-variant:normal;font-weight:normal;font-stretch:normal;fill:#333333;font-family:Purisa;-inkscape-font-specification:Purisa">MP</tspan></text>
    <path
       inkscape:connector-curvature="0"
       id="path3397"
       d="m 352.94966,399.62698 c -5.62876,1.23882 -9.38231,6.97505 -9.07117,12.65681 -0.5507,14.15421 0.54067,28.74794 4.25769,42.48987 2.15683,3.40653 -2.03188,6.21971 -3.26577,9.06796 -4.0335,6.2454 -6.67532,13.4846 -6.71094,21.01938 0.25672,3.15679 -3.60994,2.09548 -5.64831,2.35368 -13.17825,0.1711 -26.19709,-3.05417 -39.31426,-4.00086 -3.64244,-0.19118 -4.22682,5.67827 -0.62868,6.50294 6.80167,2.26228 14.14569,0.19479 21.1146,1.45935 8.31528,0.95101 16.886,0.34503 25.01079,1.96097 0.46355,3.6446 1.54665,7.35779 2.40164,10.77126 -14.30037,4.7027 -30.00577,5.47806 -44.22397,10.46846 -2.53343,0.43265 -4.50766,4.4943 -1.53718,5.75825 4.80612,0.81313 9.26789,-2.31179 13.96252,-2.85016 11.57166,-2.59876 23.12347,-5.71435 34.89827,-7.03936 1.40153,1.22698 2.92009,3.68218 2.80724,5.29302 -8.26304,6.62684 -17.92501,11.59981 -25.14883,19.29894 -1.65187,2.25957 1.11773,5.38823 3.51176,3.68452 8.6421,-5.93179 16.49698,-13.45692 26.1174,-17.86106 7.41803,3.77543 14.0682,9.09157 22.01135,11.85915 11.08495,4.39046 22.8988,7.00131 34.54063,9.1919 14.55128,1.47342 29.68872,0.61926 43.41935,-4.30202 7.933,-2.7851 14.83901,-7.96988 20.72717,-13.80021 2.10878,-2.0042 2.94199,-6.48557 6.73608,-5.25487 15.88417,2.29855 32.14338,7.39647 44.83529,17.52952 1.58077,1.98709 1.65212,5.08225 4.47142,6.07729 1.89807,1.4576 5.06707,1.98989 5.92715,-0.83149 1.70155,-4.51523 -3.4227,-7.92088 -6.55582,-10.22741 -9.15736,-6.46951 -18.66759,-12.63272 -29.71691,-14.97702 -5.93609,-1.78989 -12.07922,-2.8711 -18.09137,-4.25566 0.91847,-1.85863 1.08046,-5.71314 4.05679,-5.05145 13.37646,1.40624 26.68735,4.16394 39.63769,7.94234 3.54923,1.64437 7.64711,3.95609 11.65413,3.012 3.28159,-1.42924 1.54196,-6.06271 -1.3218,-6.99215 -7.09281,-2.43225 -14.55213,-3.97076 -21.85502,-5.60651 -9.44194,-1.8607 -18.91446,-3.54932 -28.40685,-5.10703 -0.55973,-3.74916 0.84875,-8.94078 5.42228,-8.98112 12.77277,-1.4375 25.69957,-1.71618 38.54883,-1.65337 3.97865,-0.63291 2.05163,-6.74226 -1.39081,-6.73047 -11.3485,-1.11138 -22.75668,0.77055 -34.08298,1.31894 -2.08843,-0.25894 -5.44552,1.26655 -6.82443,-0.84223 -1.07967,-7.44691 -2.68511,-14.89562 -6.6833,-21.43104 -2.19547,-2.64158 1.40465,-5.16269 2.16475,-7.61833 4.44496,-7.63859 8.07102,-15.89194 9.97707,-24.50859 -1.22862,-7.95085 -0.30944,-17.30414 -5.73841,-23.93703 -4.18439,-4.367 -10.97049,-2.29382 -15.98538,-1.06587 -11.03945,3.68258 -22.38705,9.29142 -28.91194,19.21483 -1.28734,1.79988 -1.49688,4.16328 -2.16834,6.09549 -9.32032,1.02329 -19.08373,-1.27546 -28.38411,0.94968 -5.63821,0.9529 -12.09008,2.86497 -17.19201,3.44622 1.08068,-5.56853 -3.844,-10.20474 -6.82768,-14.44767 -6.22336,-6.96083 -12.71634,-14.5605 -21.56819,-18.0907 -3.52301,-1.13905 -7.23806,-2.2051 -10.95743,-1.95907 z m 0.97388,6.15366 c 6.58523,-0.52504 12.8616,2.29199 17.62699,6.72843 7.29634,5.85567 13.25644,13.3727 17.01388,21.87358 1.42212,1.41079 -2.74303,0.82914 -3.54933,1.38292 -2.06151,0.47272 -4.85432,0.6934 -5.32386,-1.94449 -2.99706,-6.41974 -9.6539,-9.97994 -14.98901,-14.17761 -2.38636,-1.63509 -6.95583,-4.55949 -9.00388,-1.01126 -1.29693,4.9947 0.21994,10.47612 0.20021,15.63948 0.0454,4.93481 1.35864,9.9988 1.15822,14.83933 -0.69239,1.39633 -1.80336,2.53467 -3.00112,3.47376 -4.5496,-11.4391 -3.90447,-24.04449 -4.32186,-36.09139 0.12168,-3.68576 0.17443,-8.81282 3.93596,-10.67683 l 0.19906,-0.032 0.0549,-0.004 z m 123.70911,3.18132 c 4.61394,-0.1663 5.78356,5.77888 6.23276,9.36832 0.8025,5.69793 1.45647,11.53762 -1.16125,16.83486 -2.32669,6.53544 -5.29109,12.90269 -9.45526,18.45379 -2.46448,-1.93193 -2.3358,-4.0542 0.20039,-5.94117 5.34985,-6.02073 4.84451,-14.90108 6.55056,-22.40451 1.38922,-3.29254 -0.58222,-7.63905 -4.67198,-6.4995 -10.03252,1.17086 -19.60274,5.97862 -26.54691,13.11947 -0.54088,1.1339 -1.22644,2.3843 -2.5653,1.0948 -1.83517,-0.64275 -3.09863,-2.22386 -1.9242,-3.99608 4.03136,-7.97035 12.65333,-12.39851 20.43976,-16.05587 4.11362,-1.76631 8.4575,-3.19802 12.90143,-3.97411 z M 361.1767,424.47478 c 5.01406,2.48747 9.40374,6.80645 12.8599,11.20497 2.02424,2.51394 -1.88183,3.96823 -3.73639,4.51551 -2.55578,0.7308 -4.49131,2.84665 -6.45201,4.29934 -2.0497,-4.84225 -1.96169,-10.56812 -2.66843,-15.836 -0.0387,-1.35741 -0.2991,-2.90822 -0.003,-4.18382 z m 110.92396,1.51363 c 1.52469,0.0114 0.30297,2.65607 0.54396,3.52243 -0.51598,6.12968 -1.88739,12.65879 -7.12237,16.45734 -3.92349,-2.96692 -7.79563,-6.1024 -11.69408,-8.97334 2.38703,-4.76704 7.82281,-7.38051 12.51494,-9.48936 1.87524,-0.648 3.76547,-1.26273 5.75755,-1.51707 z m -58.98688,10.11181 c 13.46257,-0.53312 28.23264,-0.71011 39.57509,7.93652 5.47721,4.16154 11.16936,8.42111 15.50914,13.74807 0.64602,2.14974 -0.36857,6.20358 3.06713,6.17426 3.87369,0.69983 5.17402,5.5316 6.3333,8.71967 0.93218,3.88186 2.27439,8.23525 1.32698,12.13009 -3.66861,2.58754 -9.88157,0.82075 -12.5559,4.99621 -1.07999,2.45375 1.4565,5.08849 4.0119,4.16381 2.53331,-0.0983 5.5372,-1.31363 7.81502,-0.85176 -0.63496,2.16227 -0.26786,6.18343 -3.57083,5.04456 -3.10498,0.48291 -7.50672,-1.31343 -9.89721,1.28088 -1.60418,3.17838 2.09516,5.75727 5.02018,5.63565 1.23515,0.44483 4.14506,-0.28247 4.3868,1.29352 -0.31233,2.96089 -3.05436,4.92674 -6.023,3.95775 -2.31365,-0.60706 -6.54183,-1.17221 -6.81779,2.19592 0.0575,3.4641 4.74343,3.53368 6.64029,4.6429 -9.04136,10.3471 -22.63291,16.081 -36.45518,17.10854 -14.0602,1.56236 -28.38094,0.78755 -42.0784,-3.27928 -11.1535,-2.31504 -22.04007,-6.61943 -31.39187,-13.13634 -1.76418,-1.20313 1.14587,-1.8123 1.9059,-2.35211 2.96713,-2.06455 6.79325,-3.63656 8.72819,-6.82384 -0.20033,-3.0921 -4.30384,-2.15275 -5.94814,-0.89206 -3.31682,1.7413 -6.70086,4.61027 -10.55448,4.38086 -1.04984,-0.75856 -2.98181,-3.49736 -0.80551,-3.99992 4.03159,-1.8009 9.94098,-1.81681 12.28021,-6.05989 0.56563,-2.87114 -3.29551,-3.28314 -5.05508,-2.01811 -3.51973,1.1798 -7.4668,2.95695 -11.16457,2.42277 -1.88952,-2.90883 -3.00531,-6.98006 -2.29952,-10.2278 2.8644,-1.52039 5.81433,0.99752 8.63471,0.13761 2.31966,-1.21065 1.07125,-4.59474 -1.4143,-4.67354 -2.49351,-0.82679 -5.54687,0.58936 -7.79882,-0.65413 -1.31913,-6.0651 1.08814,-12.17363 3.36192,-17.72065 3.22192,-5.82219 7.8948,-11.06265 12.93643,-15.20728 5.95522,-3.54662 10.0808,-10.4128 17.56923,-11.2882 3.92069,-0.48884 7.36202,-3.84509 11.34209,-2.06805 5.0758,0.46824 9.8278,-2.07885 14.96672,-1.73442 2.7056,0.11772 5.50396,-0.49786 7.1404,-2.71035 0.37984,-0.10159 0.84591,-0.24524 1.27897,-0.27186 z m -32.08128,23.55812 c -3.97807,1.58601 -3.70505,6.87505 -3.89709,10.49063 -0.0709,4.2945 1.47228,10.88809 6.80777,11.01744 4.36684,-0.63869 6.36214,-6.02032 6.02988,-10.01406 -0.86566,-4.15999 -2.95103,-8.6802 -6.52863,-11.18355 -0.7643,-0.33906 -1.58702,-0.47228 -2.41193,-0.31046 z m 54.45799,-3.52305 c -4.30882,1.64121 -5.84939,6.83949 -6.64228,10.99226 -0.55285,4.27448 1.70021,9.77876 6.19173,10.89482 6.01791,-0.74208 8.05694,-7.82375 7.6885,-13.10144 -0.044,-3.85837 -2.71443,-9.22945 -7.23795,-8.78564 z m -28.85044,31.40933 c -2.37847,-0.51778 -4.85653,1.29281 -3.74492,3.78204 1.05809,4.55483 6.00413,7.67906 6.06922,12.4448 -0.60178,3.99586 -4.71248,6.16556 -8.50582,5.1569 -3.46149,0.4073 -1.81802,5.52275 0.68445,6.41224 3.67597,1.73095 7.48325,-0.50393 10.43827,-2.33588 0.88175,2.85891 3.54807,5.35636 6.77195,4.46865 3.66628,-0.80645 8.82402,-0.44951 11.02854,-3.99155 1.20401,-2.97131 -2.46179,-4.88785 -4.97925,-4.31719 -2.46337,-0.11822 -5.35078,1.17246 -7.56593,0.33905 -1.42673,-4.42084 -2.06764,-9.70391 1.33666,-13.36005 1.84194,-2.03886 6.30898,-3.32195 5.03408,-6.89899 -1.50079,-3.07104 -5.82079,-1.59135 -8.50732,-2.05492 -2.69124,0.0242 -5.38325,0.10292 -8.05993,0.35492 z"
       style="fill:#333333"
       inkscape:export-filename="/tmp/mpcat.org.png"
       inkscape:export-xdpi="30.161787"
       inkscape:export-ydpi="30.161787" />
    <path
       style="font-size:94.36105347px;font-style:normal;font-variant:normal;font-weight:bold;font-stretch:normal;text-align:center;line-height:125%;letter-spacing:0px;word-spacing:0px;writing-mode:lr-tb;text-anchor:middle;fill:#333333;fill-opacity:1;stroke:none;font-family:Purisa;-inkscape-font-specification:Purisa Bold"
       d="m 580.36254,399.04903 c -9.37321,1.01766 -19.89163,5.51305 -23.62955,14.71929 -0.93594,4.77411 -0.64995,10.27059 1.64319,14.58043 1.3729,1.87382 2.32275,4.57841 4.72442,5.89706 11.07863,7.75548 25.67095,11.23907 39.06316,8.56765 7.22538,-1.33852 14.66217,-8.01609 12.52065,-15.92275 -0.90374,-1.57257 -1.77542,-2.91316 -2.03663,-4.74443 -1.33243,-2.50831 -3.7391,-4.16821 -4.07326,-7.10507 -4.4294,-10.9685 -16.93519,-16.41224 -28.21198,-15.99218 z m 0.3703,10.11372 c 9.05664,0.27572 19.62067,4.10767 21.63921,14.00184 0.227,2.55475 2.35693,6.34536 0.27772,8.42425 -3.52093,2.11471 -7.68984,4.84187 -11.91892,2.75409 -6.63121,-2.15125 -14.2634,-1.81229 -19.61798,-6.92253 -3.93612,-2.1439 -7.20064,-7.45465 -4.17358,-11.6386 3.27505,-3.95067 8.8775,-5.82231 13.79355,-6.61905 z"
       id="path4339"
       inkscape:connector-curvature="0"
       inkscape:export-filename="/tmp/mpcat.org.png"
       inkscape:export-xdpi="30.161787"
       inkscape:export-ydpi="30.161787" />
    <path
       style="font-size:94.36105347px;font-style:normal;font-variant:normal;font-weight:bold;font-stretch:normal;text-align:center;line-height:125%;letter-spacing:0px;word-spacing:0px;writing-mode:lr-tb;text-anchor:middle;fill:#333333;fill-opacity:1;stroke:none;font-family:Purisa;-inkscape-font-specification:Purisa Bold"
       d="m 603.36722,448.15962 c -2.94954,0.0832 -4.26087,3.60406 -3.88811,5.78588 -4.78823,0.58976 -9.60638,0.86385 -14.41843,1.18032 -0.83994,-3.92456 -6.49378,-5.92219 -8.88712,-2.10605 -1.40961,3.89495 -6.84096,2.43496 -10.06744,2.86979 -4.67698,-1.04709 -13.02495,2.79873 -8.42425,8.21596 3.98818,2.9281 9.62943,0.37816 14.16385,1.04146 -2.27188,7.91037 -7.59371,14.65004 -9.78972,22.51867 -0.62887,4.29664 5.42112,5.33242 7.68366,2.40692 3.90709,-2.97126 5.47936,-7.80866 7.84566,-11.89578 1.22452,-2.80813 2.16684,-5.73031 3.14752,-8.63254 2.60322,5.04274 5.1171,10.40631 9.99801,13.56212 4.6536,4.33362 12.8054,8.32122 18.4454,3.61039 4.53885,-4.89735 3.10689,-12.46899 4.53613,-18.51483 -0.10898,-4.68959 2.95354,-10.96351 -1.42116,-14.48289 -2.50499,-2.15363 -5.25491,-5.59099 -8.924,-5.55942 z m 0.32402,18.12139 c -0.0731,4.53313 -0.92029,9.109 -2.22179,13.28439 -5.62828,-2.27776 -10.27206,-6.57743 -12.38179,-12.42808 -2.49535,-3.4951 3.97663,-1.68332 6.15061,-2.48895 2.84123,-0.25314 5.66231,-0.48399 8.45297,-0.95943 0,0.86403 0,1.72804 0,2.59207 z"
       id="path4341"
       inkscape:connector-curvature="0"
       inkscape:export-filename="/tmp/mpcat.org.png"
       inkscape:export-xdpi="30.161787"
       inkscape:export-ydpi="30.161787" />
    <path
       style="font-size:94.36105347px;font-style:normal;font-variant:normal;font-weight:bold;font-stretch:normal;text-align:center;line-height:125%;letter-spacing:0px;word-spacing:0px;writing-mode:lr-tb;text-anchor:middle;fill:#333333;fill-opacity:1;stroke:none;font-family:Purisa;-inkscape-font-specification:Purisa Bold"
       d="m 574.25265,498.14967 c -6.28218,0.49015 -14.41198,2.14597 -15.99219,9.34998 -2.63866,9.45212 4.08653,18.565 11.17833,24.04615 -3.99562,0.16984 -11.02547,-0.80665 -11.91892,4.55927 -0.64932,4.1194 3.76232,6.13553 7.26707,5.5776 8.31562,-0.37008 17.50162,0.25818 24.92559,-3.98069 3.91855,-3.6148 3.7541,-9.63567 4.28156,-14.58043 0.11587,-3.05102 -2.07284,-5.27445 -2.89294,-8.0771 -2.25592,-4.30672 -8.76232,-2.0771 -9.23427,2.3375 -1.12258,3.19114 -0.77281,7.21912 0.43973,9.92858 -7.43405,-1.7501 -15.95946,-8.3391 -14.48787,-17.03365 1.57954,-3.18832 6.40434,-1.60681 9.28057,-2.19863 8.53792,-0.83049 15.75933,5.0925 21.68549,10.43773 3.5604,3.53534 7.00681,8.68176 7.38279,13.46954 -3.8836,0.65359 -3.73342,6.05089 -0.324,7.22079 3.07517,2.38713 7.63537,1.04654 8.79454,-2.63836 2.03667,-3.87553 2.18601,-9.20495 -1.24975,-12.26608 -4.18703,-11.3487 -13.85212,-20.12892 -24.99503,-24.30072 -4.5994,-1.24468 -9.36722,-1.88976 -14.1407,-1.85148 z"
       id="path4343"
       inkscape:connector-curvature="0"
       inkscape:export-filename="/tmp/mpcat.org.png"
       inkscape:export-xdpi="30.161787"
       inkscape:export-ydpi="30.161787" />
  </g>
</svg>
